<?xml version="1.0" encoding="utf-8"?>
<!-- Generator: Adobe Illustrator 24.1.1, SVG Export Plug-In . SVG Version: 6.00 Build 0)  -->
<svg version="1.1"
	 id="svg2" xmlns:cc="http://creativecommons.org/ns#" xmlns:dc="http://purl.org/dc/elements/1.1/" xmlns:inkscape="http://www.inkscape.org/namespaces/inkscape" xmlns:rdf="http://www.w3.org/1999/02/22-rdf-syntax-ns#" xmlns:sodipodi="http://sodipodi.sourceforge.net/DTD/sodipodi-0.dtd" xmlns:svg="http://www.w3.org/2000/svg"
	 xmlns="http://www.w3.org/2000/svg" xmlns:xlink="http://www.w3.org/1999/xlink" x="0px" y="0px" viewBox="0 0 1602.7 741.7"
	 style="enable-background:new 0 0 1602.7 741.7;" xml:space="preserve">
<style type="text/css">
	.st0{fill:none;stroke:#F9D4D4;stroke-width:3;stroke-miterlimit:10;}
	.st1{fill:none;stroke:#F9D4D4;stroke-width:3;stroke-miterlimit:10;stroke-dasharray:4.2015,4.2015;}
	.st2{fill:none;stroke:#F9D4D4;stroke-width:3;stroke-miterlimit:10;stroke-dasharray:5.1198,5.1198;}
	.st3{fill:none;stroke:#F9D4D4;stroke-width:3;stroke-miterlimit:10;stroke-dasharray:3.9826,3.9826;}
	.st4{fill:none;stroke:#F9D4D4;stroke-width:3;stroke-miterlimit:10;stroke-dasharray:4.0089,4.0089;}
	.st5{fill:none;stroke:#F9D4D4;stroke-width:3;stroke-miterlimit:10;stroke-dasharray:3.9357,3.9357;}
	.st6{fill:none;stroke:#F9D4D4;stroke-width:3;stroke-miterlimit:10;stroke-dasharray:4.0656,4.0656;}
	.st7{fill:none;stroke:#F9D4D4;stroke-width:3;stroke-miterlimit:10;stroke-dasharray:3.9506,3.9506;}
	.st8{fill:none;stroke:#F9D4D4;stroke-width:3;stroke-miterlimit:10;stroke-dasharray:3.945,3.945;}
	.st9{fill:none;stroke:#F9D4D4;stroke-width:3;stroke-miterlimit:10;stroke-dasharray:3.1682,3.1682;}
	.st10{fill:none;stroke:#F9D4D4;stroke-width:3;stroke-miterlimit:10;stroke-dasharray:3.9208,3.9208;}
	.st11{fill:none;stroke:#F9D4D4;stroke-width:3;stroke-miterlimit:10;stroke-dasharray:3.9894,3.9894;}
	.st12{fill:none;stroke:#F9D4D4;stroke-width:3;stroke-miterlimit:10;stroke-dasharray:4.0041,4.0041;}
	.st13{fill:none;stroke:#F9D4D4;stroke-width:3;stroke-miterlimit:10;stroke-dasharray:3.9525,3.9525;}
	.st14{fill:none;stroke:#F9D4D4;stroke-width:3;stroke-miterlimit:10;stroke-dasharray:4.4179,4.4179;}
	.st15{fill:none;stroke:#F9D4D4;stroke-width:3;stroke-miterlimit:10;stroke-dasharray:3.902,3.902;}
	.st16{fill:none;stroke:#F9D4D4;stroke-width:3;stroke-miterlimit:10;stroke-dasharray:3.891,3.891;}
	.st17{fill:none;stroke:#F9D4D4;stroke-width:3;stroke-miterlimit:10;stroke-dasharray:4.0863,4.0863;}
	.st18{fill:none;stroke:#F9D4D4;stroke-width:3;stroke-miterlimit:10;stroke-dasharray:3.863,3.863;}
	.st19{fill:none;stroke:#F9D4D4;stroke-width:3;stroke-miterlimit:10;stroke-dasharray:3.9425,3.9425;}
	.st20{fill:none;stroke:#F9D4D4;stroke-width:3;stroke-miterlimit:10;stroke-dasharray:3.9835,3.9835;}
	.st21{fill:none;stroke:#F9D4D4;stroke-width:3;stroke-miterlimit:10;stroke-dasharray:4.0053,4.0053;}
	.st22{fill:none;stroke:#F9D4D4;stroke-width:3;stroke-miterlimit:10;stroke-dasharray:4.0391,4.0391;}
	.st23{fill:none;stroke:#F9D4D4;stroke-width:3;stroke-miterlimit:10;stroke-dasharray:4.0155,4.0155;}
	.st24{fill:none;stroke:#F9D4D4;stroke-width:3;stroke-miterlimit:10;stroke-dasharray:4.0213,4.0213;}
	.st25{fill:none;stroke:#F9D4D4;stroke-width:3;stroke-miterlimit:10;stroke-dasharray:4.0219,4.0219;}
	.st26{fill:none;stroke:#F9D4D4;stroke-width:3;stroke-miterlimit:10;stroke-dasharray:3.9984,3.9984;}
	.st27{fill:none;stroke:#F9D4D4;stroke-width:3;stroke-miterlimit:10;stroke-dasharray:4.0265,4.0265;}
	.st28{fill:none;stroke:#F9D4D4;stroke-width:3;stroke-miterlimit:10;stroke-dasharray:3.8886,3.8886;}
	.st29{fill:none;stroke:#F9D4D4;stroke-width:3;stroke-miterlimit:10;stroke-dasharray:4.1085,4.1085;}
	.st30{fill:none;stroke:#F9D4D4;stroke-width:3;stroke-miterlimit:10;stroke-dasharray:4.0233,4.0233;}
	.st31{fill:none;stroke:#F9D4D4;stroke-width:3;stroke-miterlimit:10;stroke-dasharray:4.0211,4.0211;}
	.st32{fill:none;stroke:#F9D4D4;stroke-width:3;stroke-miterlimit:10;stroke-dasharray:3.9906,3.9906;}
	.st33{fill:none;stroke:#F9D4D4;stroke-width:3;stroke-miterlimit:10;stroke-dasharray:4.0244,4.0244;}
	.st34{fill:none;stroke:#F9D4D4;stroke-width:3;stroke-miterlimit:10;stroke-dasharray:3.9517,3.9517;}
	.st35{fill:none;stroke:#F9D4D4;stroke-width:3;stroke-miterlimit:10;stroke-dasharray:3.7611,3.7611;}
	.st36{fill:none;stroke:#F9D4D4;stroke-width:3;stroke-miterlimit:10;stroke-dasharray:3.9422,3.9422;}
	.st37{fill:none;stroke:#F9D4D4;stroke-width:3;stroke-miterlimit:10;stroke-dasharray:4.005,4.005;}
	.st38{fill:none;stroke:#F9D4D4;stroke-width:3;stroke-miterlimit:10;stroke-dasharray:3.7027,3.7027;}
	.st39{fill:none;stroke:#F9D4D4;stroke-width:3;stroke-miterlimit:10;stroke-dasharray:3.3614,3.3614;}
	.st40{fill:none;stroke:#F9D4D4;stroke-width:3;stroke-miterlimit:10;stroke-dasharray:4.3367,4.3367;}
	.st41{fill:none;stroke:#F9D4D4;stroke-width:3;stroke-miterlimit:10;stroke-dasharray:3.4982,3.4982;}
	.st42{fill:none;stroke:#F9D4D4;stroke-width:3;stroke-miterlimit:10;stroke-dasharray:3.2752,3.2752;}
	.st43{fill:none;stroke:#F9D4D4;stroke-width:3;stroke-miterlimit:10;stroke-dasharray:2.4568,2.4568;}
	.st44{fill:none;stroke:#F9D4D4;stroke-width:3;stroke-miterlimit:10;stroke-dasharray:3.9917,3.9917;}
	.st45{fill:none;stroke:#F9D4D4;stroke-width:3;stroke-miterlimit:10;stroke-dasharray:4.1389,4.1389;}
	.st46{fill:none;stroke:#F9D4D4;stroke-width:3;stroke-miterlimit:10;stroke-dasharray:3.1539,3.1539;}
	.st47{fill:none;stroke:#F9D4D4;stroke-width:3;stroke-miterlimit:10;stroke-dasharray:4.1262,4.1262;}
	.st48{fill:none;stroke:#F9D4D4;stroke-width:3;stroke-miterlimit:10;stroke-dasharray:3.021,3.021;}
	.st49{fill:none;stroke:#F9D4D4;stroke-width:3;stroke-miterlimit:10;stroke-dasharray:3.0816,3.0816;}
	.st50{fill:none;stroke:#F9D4D4;stroke-width:3;stroke-miterlimit:10;stroke-dasharray:3.3615,3.3615;}
	.st51{fill:none;stroke:#F9D4D4;stroke-width:3;stroke-miterlimit:10;stroke-dasharray:3.5451,3.5451;}
	.st52{fill:none;stroke:#F9D4D4;stroke-width:3;stroke-miterlimit:10;stroke-dasharray:4.0317,4.0317;}
	.st53{fill:none;stroke:#F9D4D4;stroke-width:3;stroke-miterlimit:10;stroke-dasharray:3.0748,3.0748;}
	.st54{fill:none;stroke:#F9D4D4;stroke-width:3;stroke-miterlimit:10;stroke-dasharray:3.8215,3.8215;}
	.st55{fill:none;stroke:#F9D4D4;stroke-width:3;stroke-miterlimit:10;stroke-dasharray:4.1613,4.1613;}
	.st56{fill:none;stroke:#F9D4D4;stroke-width:3;stroke-miterlimit:10;stroke-dasharray:3.3784,3.3784;}
	.st57{fill:none;stroke:#F9D4D4;stroke-width:3;stroke-miterlimit:10;stroke-dasharray:3.466,3.466;}
	.st58{fill:none;stroke:#F9D4D4;stroke-width:3;stroke-miterlimit:10;stroke-dasharray:3.837,3.837;}
	.st59{fill:none;stroke:#F9D4D4;stroke-width:3;stroke-miterlimit:10;stroke-dasharray:4.0359,4.0359;}
	.st60{fill:none;stroke:#F9D4D4;stroke-width:3;stroke-miterlimit:10;stroke-dasharray:4.0625,4.0625;}
	.st61{fill:none;stroke:#F9D4D4;stroke-width:3;stroke-miterlimit:10;stroke-dasharray:3.8233,3.8233;}
	.st62{fill:none;stroke:#F9D4D4;stroke-width:3;stroke-miterlimit:10;stroke-dasharray:4.0634,4.0634;}
	.st63{fill:none;stroke:#F9D4D4;stroke-width:3;stroke-miterlimit:10;stroke-dasharray:4.1041,4.1041;}
	.st64{fill:none;stroke:#F9D4D4;stroke-width:3;stroke-miterlimit:10;stroke-dasharray:4.473,4.473;}
	.st65{fill:none;stroke:#F9D4D4;stroke-width:3;stroke-miterlimit:10;stroke-dasharray:3.664,3.664;}
	.st66{fill:none;stroke:#F9D4D4;stroke-width:3;stroke-miterlimit:10;stroke-dasharray:4.369,4.369;}
	.st67{fill:none;stroke:#F9D4D4;stroke-width:3;stroke-miterlimit:10;stroke-dasharray:3.3613,3.3613;}
	.st68{fill:none;stroke:#F9D4D4;stroke-width:3;stroke-miterlimit:10;stroke-dasharray:4.0515,4.0515;}
	.st69{fill:none;stroke:#F9D4D4;stroke-width:3;stroke-miterlimit:10;stroke-dasharray:4.0573,4.0573;}
	.st70{fill:none;stroke:#F9D4D4;stroke-width:3;stroke-miterlimit:10;stroke-dasharray:3.9554,3.9554;}
	.st71{fill:none;stroke:#F9D4D4;stroke-width:3;stroke-miterlimit:10;stroke-dasharray:4.1664,4.1664;}
	.st72{fill:none;stroke:#F9D4D4;stroke-width:3;stroke-miterlimit:10;stroke-dasharray:3.8158,3.8158;}
	.st73{fill:none;stroke:#F9D4D4;stroke-width:3;stroke-miterlimit:10;stroke-dasharray:3.959,3.959;}
	.st74{fill:none;stroke:#F9D4D4;stroke-width:3;stroke-miterlimit:10;stroke-dasharray:3.3979,3.3979;}
	.st75{fill:none;stroke:#F9D4D4;stroke-width:3;stroke-miterlimit:10;stroke-dasharray:3.6785,3.6785;}
	.st76{fill:none;stroke:#F9D4D4;stroke-width:3;stroke-miterlimit:10;stroke-dasharray:3.5003,3.5003;}
	.st77{fill:none;stroke:#F9D4D4;stroke-width:3;stroke-miterlimit:10;stroke-dasharray:3.539,3.539;}
	.st78{fill:none;stroke:#F9D4D4;stroke-width:3;stroke-miterlimit:10;stroke-dasharray:4.0167,4.0167;}
	.st79{fill:none;stroke:#F9D4D4;stroke-width:3;stroke-miterlimit:10;stroke-dasharray:4.1833,4.1833;}
	.st80{fill:none;stroke:#F9D4D4;stroke-width:3;stroke-miterlimit:10;stroke-dasharray:3.7935,3.7935;}
	.st81{fill:none;stroke:#F9D4D4;stroke-width:3;stroke-miterlimit:10;stroke-dasharray:3.4789,3.4789;}
	.st82{fill:none;stroke:#F9D4D4;stroke-width:3;stroke-miterlimit:10;stroke-dasharray:4.1988,4.1988;}
	.st83{fill:none;stroke:#F9D4D4;stroke-width:3;stroke-miterlimit:10;stroke-dasharray:3.9818,3.9818;}
	.st84{fill:none;stroke:#F9D4D4;stroke-width:3;stroke-miterlimit:10;stroke-dasharray:4.3371,4.3371;}
	.st85{fill:none;stroke:#F9D4D4;stroke-width:3;stroke-miterlimit:10;stroke-dasharray:4.2532,4.2532;}
	.st86{fill:none;stroke:#F9D4D4;stroke-width:3;stroke-miterlimit:10;stroke-dasharray:3.8663,3.8663;}
	.st87{fill:none;stroke:#F9D4D4;stroke-width:3;stroke-miterlimit:10;stroke-dasharray:5.413,5.413;}
	.st88{fill:none;stroke:#F9D4D4;stroke-width:3;stroke-miterlimit:10;stroke-dasharray:4.1779,4.1779;}
	.st89{fill:none;stroke:#F9D4D4;stroke-width:3;stroke-miterlimit:10;stroke-dasharray:2.9944,2.9944;}
	.st90{fill:none;stroke:#F9D4D4;stroke-width:3;stroke-miterlimit:10;stroke-dasharray:4.2147,4.2147;}
	.st91{fill:none;stroke:#F9D4D4;stroke-width:3;stroke-miterlimit:10;stroke-dasharray:4.8396,4.8396;}
	.st92{fill:none;stroke:#F9D4D4;stroke-width:3;stroke-miterlimit:10;stroke-dasharray:2.8754,2.8754;}
	.st93{fill:none;stroke:#F9D4D4;stroke-width:3;stroke-miterlimit:10;stroke-dasharray:3.9711,3.9711;}
	.st94{fill:none;stroke:#F9D4D4;stroke-width:3;stroke-miterlimit:10;stroke-dasharray:4.4412,4.4412;}
	.st95{fill:none;stroke:#F9D4D4;stroke-width:3;stroke-miterlimit:10;stroke-dasharray:3.9762,3.9762;}
	.st96{fill:none;stroke:#F9D4D4;stroke-width:3;stroke-miterlimit:10;stroke-dasharray:3.2313,3.2313;}
	.st97{fill:none;stroke:#F9D4D4;stroke-width:3;stroke-miterlimit:10;stroke-dasharray:3.7245,3.7245;}
	.st98{fill:none;stroke:#F9D4D4;stroke-width:3;stroke-miterlimit:10;stroke-dasharray:4.3953,4.3953;}
	.st99{fill:none;stroke:#F9D4D4;stroke-width:3;stroke-miterlimit:10;stroke-dasharray:3.9756,3.9756;}
	.st100{fill:none;stroke:#F9D4D4;stroke-width:3;stroke-miterlimit:10;stroke-dasharray:2.8917,2.8917;}
	.st101{fill:none;stroke:#F9D4D4;stroke-width:3;stroke-miterlimit:10;stroke-dasharray:4.2493,4.2493;}
	.st102{fill:none;stroke:#F9D4D4;stroke-width:3;stroke-miterlimit:10;stroke-dasharray:3.5297,3.5297;}
	.st103{fill:none;stroke:#F9D4D4;stroke-width:3;stroke-miterlimit:10;stroke-dasharray:3.9624,3.9624;}
	.st104{fill:none;stroke:#F9D4D4;stroke-width:3;stroke-miterlimit:10;stroke-dasharray:4.0132,4.0132;}
	.st105{fill:none;stroke:#F9D4D4;stroke-width:3;stroke-miterlimit:10;stroke-dasharray:4.0892,4.0892;}
	.st106{fill:none;stroke:#F9D4D4;stroke-width:3;stroke-miterlimit:10;stroke-dasharray:3.8024,3.8024;}
	.st107{fill:none;stroke:#F9D4D4;stroke-width:3;stroke-miterlimit:10;stroke-dasharray:3.9848,3.9848;}
	.st108{fill:none;stroke:#F9D4D4;stroke-width:3;stroke-miterlimit:10;stroke-dasharray:3.7431,3.7431;}
	.st109{fill:none;stroke:#F9D4D4;stroke-width:3;stroke-miterlimit:10;stroke-dasharray:3.4977,3.4977;}
	.st110{fill:none;stroke:#F9D4D4;stroke-width:3;stroke-miterlimit:10;stroke-dasharray:5.0822,5.0822;}
	.st111{fill:none;stroke:#F9D4D4;stroke-width:3;stroke-miterlimit:10;stroke-dasharray:4.1368,4.1368;}
	.st112{fill:none;stroke:#F9D4D4;stroke-width:3;stroke-miterlimit:10;stroke-dasharray:2.9192,2.9192;}
	.st113{fill:none;stroke:#F9D4D4;stroke-width:3;stroke-miterlimit:10;stroke-dasharray:4.0256,4.0256;}
	.st114{fill:none;stroke:#F9D4D4;stroke-width:3;stroke-miterlimit:10;stroke-dasharray:3.9049,3.9049;}
	.st115{fill:none;stroke:#F9D4D4;stroke-width:3;stroke-miterlimit:10;stroke-dasharray:3.9477,3.9477;}
	.st116{fill:none;stroke:#F9D4D4;stroke-width:3;stroke-miterlimit:10;stroke-dasharray:3.9629,3.9629;}
	.st117{fill:none;stroke:#F9D4D4;stroke-width:3;stroke-miterlimit:10;stroke-dasharray:4.4036,4.4036;}
	.st118{fill:none;stroke:#F9D4D4;stroke-width:3;stroke-miterlimit:10;stroke-dasharray:4.3176,4.3176;}
	.st119{fill:none;stroke:#F9D4D4;stroke-width:3;stroke-miterlimit:10;stroke-dasharray:4.0398,4.0398;}
	.st120{fill:none;stroke:#F9D4D4;stroke-width:3;stroke-miterlimit:10;stroke-dasharray:3.9102,3.9102;}
	.st121{fill:none;stroke:#F9D4D4;stroke-width:3;stroke-miterlimit:10;stroke-dasharray:4.1285,4.1285;}
	.st122{fill:none;stroke:#F9D4D4;stroke-width:3;stroke-miterlimit:10;stroke-dasharray:4.4177,4.4177;}
	.st123{fill:none;stroke:#F9D4D4;stroke-width:3;stroke-miterlimit:10;stroke-dasharray:4.1468,4.1468;}
	.st124{fill:none;stroke:#F9D4D4;stroke-width:3;stroke-miterlimit:10;stroke-dasharray:5.4131,5.4131;}
	.st125{fill:none;stroke:#F9D4D4;stroke-width:3;stroke-miterlimit:10;stroke-dasharray:4.0262,4.0262;}
	.st126{fill:none;stroke:#F9D4D4;stroke-width:3;stroke-miterlimit:10;stroke-dasharray:2.687,2.687;}
	.st127{fill:none;stroke:#F9D4D4;stroke-width:3;stroke-miterlimit:10;stroke-dasharray:3.8831,3.8831;}
	.st128{fill:none;stroke:#F9D4D4;stroke-width:3;stroke-miterlimit:10;stroke-dasharray:4.2909,4.2909;}
	.st129{fill:none;stroke:#F9D4D4;stroke-width:3;stroke-miterlimit:10;stroke-dasharray:3.718,3.718;}
	.st130{fill:none;stroke:#F9D4D4;stroke-width:3;stroke-miterlimit:10;stroke-dasharray:4.2352,4.2352;}
	.st131{fill:none;stroke:#F9D4D4;stroke-width:3;stroke-miterlimit:10;stroke-dasharray:4.5968,4.5968;}
	.st132{fill:none;stroke:#F9D4D4;stroke-width:3;stroke-miterlimit:10;stroke-dasharray:4.1486,4.1486;}
	.st133{fill:none;stroke:#F9D4D4;stroke-width:3;stroke-miterlimit:10;stroke-dasharray:3.7887,3.7887;}
	.st134{fill:none;stroke:#F9D4D4;stroke-width:3;stroke-miterlimit:10;stroke-dasharray:3.9915,3.9915;}
	.st135{fill:none;stroke:#F9D4D4;stroke-width:3;stroke-miterlimit:10;stroke-dasharray:4.1892,4.1892;}
</style>
<defs>
	
		<inkscape:perspective  id="perspective10" inkscape:persp3d-origin="372.04724 : 350.78739 : 1" inkscape:vp_x="0 : 526.18109 : 1" inkscape:vp_y="0 : 1000 : 0" inkscape:vp_z="744.09448 : 526.18109 : 1" sodipodi:type="inkscape:persp3d">
		</inkscape:perspective>
	
		<inkscape:perspective  id="perspective2824" inkscape:persp3d-origin="0.5 : 0.33333333 : 1" inkscape:vp_x="0 : 0.5 : 1" inkscape:vp_y="0 : 1000 : 0" inkscape:vp_z="1 : 0.5 : 1" sodipodi:type="inkscape:persp3d">
		</inkscape:perspective>
</defs>
<sodipodi:namedview  bordercolor="#666666" borderopacity="1.0" id="base" inkscape:current-layer="layer1" inkscape:cx="625.17606" inkscape:cy="518.80927" inkscape:document-units="px" inkscape:pageopacity="0.0" inkscape:pageshadow="2" inkscape:window-height="749" inkscape:window-maximized="1" inkscape:window-width="1366" inkscape:window-x="-4" inkscape:window-y="-4" inkscape:zoom="0.35" pagecolor="#ffffff" showgrid="false">
	</sodipodi:namedview>
<g id="layer1" transform="translate(275.17606,-309.45844)" inkscape:groupmode="layer" inkscape:label="Ebene 1">
	<g id="path2830">
		<g>
			<g>
				<path class="st0" d="M105,1028.8c-0.7-0.2-1.3-0.3-1.9-0.6v0c-0.7-0.3-1.3-0.5-1.9-0.8"/>
				<path class="st1" d="M97.6,1025.3c-1.5-1.4-1.7-3.1-0.8-5.2c0.7-1.7,1.9-3.2,2.8-3.2c0.9,0,4.8,2,8.7,4.5
					c3.6,2.4,8,4.8,10.1,5.7"/>
				<polyline class="st0" points="120.4,1027.9 122.3,1028.5 120.3,1028.6 				"/>
				<path class="st2" d="M115.1,1028.8c-1.8,0.1-3.6,0.3-4.8,0.5c-0.8,0.1-1.8,0.1-2.8,0"/>
			</g>
			<g>
				<path class="st0" d="M91.4,1017.1c-0.7,0.1-1.4,0-1.9-0.3v0c-0.5-0.3-1.2-0.5-1.9-0.6"/>
				<path class="st3" d="M83.6,1016.3c-0.7-0.3-1.4-1-2.1-2.3c-0.9-1.6-2.4-3.2-3.5-3.6c-2.4-0.8-7.3-8.9-10.1-16.4
					c-1.4-3.8-3.3-6.4-5.5-7.7c-4-2.3-4.2-3.3-1.2-4.2c3.5-1.1,4.2-7.3,1.2-11.4c-1.4-2-2.1-4.3-1.7-5.4c0.5-1.3-0.9-3.6-4.2-7
					c-4.2-4.3-5-5.9-5.2-10.4c-0.1-2.9-0.8-6.1-1.6-7c-0.9-1.1-1.1-5.2-0.6-13.3c0.6-8.8,0.2-14.2-1.3-21.7
					c-2.3-11.2-3.4-32.1-2.8-51.1c0.1-4.1-0.4-9.6-1.2-12.4c-1.9-6.7-10.5-15.2-21.1-20.8c-7.6-4-8.7-5-11.7-11.2
					c-1.8-3.7-5.2-9.3-7.7-12.4c-2.4-3.1-5-7.6-5.8-10c-2.5-7.8-6.9-15.6-10-17.5c-1.6-1.1-3.4-3.8-4.1-6.1c-1-3.7-0.8-4.7,2.5-9.4
					c3.5-5.1,3.5-5.3,1.2-5.9c-5.8-1.5-3.3-9.2,7-22.3c6.9-8.7,8.9-15.3,7-23c-0.7-2.9-1.4-6-1.4-6.8c-0.1-0.8-0.6-1.5-1.2-1.5
					s-0.5-1.1,0.2-2.4c1.1-2,0.8-2.6-1.8-3.8c-3.8-1.7-9.4,0-9.5,2.8c0,3.4-1.5,3.7-6.5,1.1c-2.6-1.4-5.4-2.5-6.1-2.5
					s-3.5-1.9-6.2-4.2c-2.7-2.3-5.5-4.7-6.3-5.4c-0.8-0.6-1.5-2.4-1.5-3.9s-1-3.7-2.3-4.8s-2.9-3.9-3.7-6.2c-1-3-1.7-3.7-2.6-2.8
					c-1.9,1.9-4.8,1.6-11.8-1.5c-3.7-1.6-7.5-4.4-9-6.5c-1.5-2-4.2-4.5-6.2-5.5c-3.2-1.7-4-1.6-8.7,0.1l-1.4,0.5"/>
				<polyline class="st0" points="-86.5,651.5 -88.4,652.2 -90.2,651.3 				"/>
				<path class="st4" d="M-93.8,649.6l-10.3-5c-9.7-4.7-17.2-9.2-19.5-11.6c-3.6-3.8-3.7-4.2-2.5-9c1.1-4.3,0.9-5.7-1.5-10.6
					c-1.5-3.1-4.8-7.9-7.3-10.6s-4.3-5.4-3.9-6c0.3-0.6-1.4-4.4-3.9-8.5c-2.9-4.7-4.9-9.6-5.4-13.3c-0.6-4.7-1.4-6.1-3.8-7.2
					c-2.5-1.1-3.2-1-4.7,1c-2,2.8-1.5,5.7,3,15.4c1.8,3.9,3.7,9.8,4.2,13c0.5,3.2,1.9,7.8,3.1,10.3c3,5.8,1,5.7-3.6-0.2
					c-2.8-3.5-3.5-5.4-3-7.6c0.6-2.3,0-3.5-2.9-5.6c-4.3-3.2-5.3-5.3-3.7-8.3c0.9-1.7,0.5-3.6-1.9-8.3c-2.4-4.7-2.9-7-2.3-10.5
					c1-5.7-1.6-10.9-6.4-12.9c-2.8-1.1-3.7-2.4-4.3-5.8c-0.4-2.4-1.2-6-1.7-8.1c-0.6-2.2-0.5-4.1,0.1-4.5c0.6-0.4,0.2-2-0.9-3.6
					c-1.6-2.4-1.7-3.5-0.6-5.9c0.7-1.6,1-3.5,0.6-4.2c-0.4-0.7,0.6-2.6,2.2-4.3s3.8-5.2,4.8-7.7c1-2.5,4.2-7.1,7-10.3
					c2.8-3.2,6.4-8.7,8-12.3c2.2-5,3.4-6.5,5.4-6.6c1.4,0,2.5,0.6,2.4,1.5c-0.4,3.4,2.3,2.3,5.3-2.1c1.8-2.6,2.7-4.9,2.1-5.1
					c-0.6-0.2-1.1-1.2-1.1-2.2s-2.4-4.2-5.4-7.1c-5-4.8-5.3-5.5-3.6-7.3c1.3-1.5,1.5-2.6,0.6-4.1c-1.6-2.8,0.9-9.1,3.6-9.1
					c1.1,0,1.4-0.4,0.7-0.9c-1.5-1.1-2.2-3.7-2-7.4c0.3-5.9-1-8.4-5.3-10.2c-2.4-1-6-3.1-8-4.6s-4.7-2.8-5.8-2.8
					c-1.1,0-6.3-1.1-11.4-2.4c-8.3-2.1-9.7-2.2-12.6-0.7c-5.9,3.1-12.2,4.3-14.8,2.9c-1.9-1-4-0.4-11.3,3.4
					c-4.9,2.6-10.8,5.1-13.1,5.6c-2.3,0.5-6.6,2.1-9.7,3.7c-8.6,4.4-21,8.7-24.4,8.7c-2.2,0-0.7-1,5.2-3.3c10-4,20.2-9.1,21.2-10.7
					c1.2-1.9-1.4-2.6-4.4-1.2c-2.2,1-3.5,0.9-6-0.3"/>
				<polyline class="st0" points="-249,424.1 -250.8,423.1 -249,422.2 				"/>
				<path class="st5" d="M-245.6,420.3c2.8-1.9,3.6-4.1,2.8-7.3c-0.9-3.6,4.1-6.3,14.9-7.9c5.8-0.9,10.2-2.3,13.2-4.4
					c5.2-3.6,4.3-6.3-1.3-3.9c-2.7,1.1-4.6,1.1-8.6,0.1c-4.8-1.3-5-1.5-2.8-3.1c3.6-2.6,11.1-4.2,16-3.4c3.1,0.5,5.6,0.2,8.3-1.2
					l0.2-0.1"/>
				<polyline class="st0" points="-201.1,388.1 -199.3,387.2 -200.7,385.8 				"/>
				<path class="st6" d="M-203.4,382.7c-0.5-0.7-0.9-1.3-0.9-1.5c0-1.1,7.1-3.3,10.7-3.3c1.8,0,6.6-1.3,10.8-2.9
					c4.2-1.6,13.8-3.7,21.4-4.8c12.3-1.7,14.9-1.7,24.2-0.2c5.7,0.9,13.5,2.1,17.4,2.5c3.9,0.4,10.8,1.8,15.3,3
					c10.5,2.9,17.4,2.9,29.2-0.1c5.2-1.3,10.4-2.1,11.7-1.7c1.2,0.4,3.3,0.1,4.6-0.6c1.8-1,3.2-0.9,5.8,0.5c2.3,1.2,5.2,1.6,9.2,1.1
					c4.2-0.5,7.8,0,13.1,1.8c4,1.4,8.5,2.5,10,2.5c2.6,0,2.6,0,0.3,1.7c-2.2,1.6-2.2,1.7-0.1,2.5c1.2,0.5,5.3,0.5,9.1,0.1
					c6.9-0.7,7-0.7,8.9,3l0.1,0.2"/>
				<polyline class="st0" points="-1.8,388.5 -0.9,390.3 0.4,388.7 				"/>
				<path class="st7" d="M3,385.8c1.7-1.4,4.3-2.8,6.8-3.5c4.9-1.5,6.3-1.5,11.2,0c3.4,1.1,7.6,1.4,10.6,1c3.9-0.6,5.7-0.2,8.3,1.6
					c3.2,2.3,3.3,2.3,6.2,0.1c1.6-1.2,4.9-2.8,7.3-3.5c5.8-1.6,7.8-5.1,4.3-7.5c-2.5-1.7-2.4-1.9,4.1-5c4.8-2.4,7-2.9,8-2
					c0.9,0.9,0.9,2,0,3.8c-1.6,3.1,0.4,7.7,3,6.8c0.9-0.4,2.5-0.3,3.4,0c1.5,0.6,1.5,1.1-0.2,3.6c-4.5,6.9,5.6,5,12.5-2.4
					c2.8-3,7.1-3.9,11.2-2.4c2.6,1,2.4,1.8-2,6.6c-5.2,5.7-7.8,6.8-15.6,6.8c-3.8,0-8.2,0.8-10.3,1.9c-2.9,1.5-4.3,1.6-6.5,0.6
					c-4.1-1.9-5.6-0.4-2.8,2.7"/>
				<polyline class="st0" points="63.9,396.4 65.2,397.9 63.3,398.4 				"/>
				<path class="st8" d="M59.5,399.5c-2.9,0.7-7.2,1.4-9.9,1.5c-4.2,0.1-5.3,0.6-5.3,2.3c0,1.4-2.1,2.9-6.5,4.8
					c-14.3,5.9-26.5,16.4-22.1,19.2c0.8,0.5,2.1,2.4,2.9,4.2c0.9,2,2.6,3.5,4.7,3.9c1.8,0.4,6.5,2.2,10.4,4.1
					c3.9,1.9,8.7,3.8,10.6,4.3c5.4,1.2,5.4,1.3,2.9,7.6c-2.1,5.4-2.2,6.2-0.5,9.4c1,1.9,2.5,3.5,3.3,3.4c3.9-0.1,7.5-3.7,9.8-9.6
					c2.1-5.6,3.1-6.7,9.3-10c9.1-4.9,12.9-9.7,11.9-15c-0.7-3.5-0.3-4.3,2.7-6.5c1.9-1.3,4.4-4.6,5.6-7.2c2.6-5.8,6.8-7.8,13.9-6.6
					c6.3,1,13.7,5,14.6,7.8c0.4,1.2,0.1,3.2-0.7,4.6c-1.1,2.1-0.9,3,1.2,5.2"/>
				<polyline class="st0" points="119.4,428.4 120.8,429.8 122.6,428.9 				"/>
				<path class="st9" d="M125.4,427.4c2.4-1.3,5.9-3.5,8.1-5.1l1.2-0.9"/>
				<polyline class="st0" points="135.9,420.5 137.5,419.3 138.2,421.1 				"/>
				<path class="st10" d="M139,424.9c0,0.5-0.1,0.9-0.2,1.2c-0.3,0.9-0.1,2.7,0.6,3.9c0.8,1.4,0.8,3,0.2,4.2
					c-0.7,1.3-0.2,3.4,1.7,6.7c2.7,4.8,2.7,4.8,0.3,6.5c-3.1,2.2-1.1,4.5,2.3,2.7c3.4-1.8,7.4-1.6,9.8,0.6c3.6,3.2,0.6,7.1-8.9,11.6
					c-10.3,4.9-14.9,5.8-28.4,5.9c-10,0.1-11.3,0.4-21,5c-5.7,2.7-10.3,5.4-10.3,6c0,2.4,1.8,2.2,8.7-1c4-1.9,9.3-3.4,11.8-3.4
					c4.2,0,4.4,0.1,3.1,2.6c-0.8,1.4-2.4,3.4-3.7,4.5c-2,1.6-2.1,2.3-0.9,5c1.9,4.1,6.7,6,12.5,5.1l0.7-0.1"/>
				<polyline class="st0" points="119.1,491.5 121.1,491.1 119.4,492.3 				"/>
				<path class="st11" d="M116.1,494.5c-1.8,1-4.1,2-5.6,2.3c-2,0.4-6,2-9,3.5c-3,1.5-6,2.3-6.8,1.8c-1.9-1.2,0.1-2.9,6.2-5.4
					c5.4-2.3,4.5-4.7-1.3-3.6c-2.3,0.4-9.6,3.2-16.3,6.2c-10.5,4.6-12.3,5.8-12.9,8.6c-0.8,3.4-3.3,5-12.3,7.8
					c-2.9,0.9-6.6,3-8.3,4.7s-4.9,4.3-7.1,5.7c-2.2,1.4-4.4,3.9-4.8,5.5c-0.6,2.7-0.8,2.7-1.6,0.7c-1.5-3.8-3.7-0.1-3.8,6.5
					c-0.1,6.7-3.5,11.3-11,14.8c-7.7,3.6-18.6,12.1-20.8,16.2c-1.9,3.6-2,5-0.8,14.3c1.1,8.7,1.1,10.9-0.4,13.7
					c-1.1,2.1-2.4,3.1-3.5,2.7c-2.5-1-5.6-11.4-4.8-16c0.6-3.2,0.2-4.4-2.2-6.7c-1.9-1.8-3.7-2.5-5.2-2c-1.3,0.4-4.8-0.4-8-1.7
					c-4.8-2-6.3-2.2-9.7-1.1c-2.3,0.8-4.6,2.6-5.3,4.2c-1.1,2.5-1.9,2.8-4.9,2.1c-2-0.4-5.1-1.5-6.8-2.4c-4.3-2.2-6.7-2.1-11.6,0.7
					c-2.3,1.3-6.9,3.8-10.3,5.5c-3.9,2-6.6,4.3-7.3,6.2c-0.6,1.7-2.8,8.2-4.8,14.4l-3.7,11.4l1.9,7.4c3.5,13.5,8.4,17.6,18.5,15.4
					c7.7-1.6,12.2-5,13.9-10.1c1.1-3.3,2.2-4.3,5.7-5.3c5.2-1.4,7.4-1.5,9.4-0.2c1.7,1,1.1,2.8-6.3,18.8c-5.1,11-4.7,12,4,10.7
					c7.9-1.1,15.2-0.3,16,1.9c0.3,0.9-0.2,6.7-1.2,12.9c-1.8,11.1-1.8,11.4,0.8,15.5c1.4,2.3,4.1,5,5.9,5.9c2.9,1.5,3.8,1.5,7.5,0
					c5.8-2.4,9-2.2,13.1,1.1c3.2,2.6,3.7,2.7,6.3,1c1.5-1,3.6-3.5,4.6-5.5c2.3-4.5,6.1-7.7,9.4-7.8c1.3,0,3.7-1.4,5.2-3
					c3.1-3.3,8.6-4.4,5.9-1.2c-2.2,2.7-3.5,11.4-2.1,14.1c1.2,2.2,1.3,2.2,3.5-0.5c1.6-1.9,1.9-3.2,1-4c-2-2-1.4-3.7,2.4-6.5
					c3.9-2.9,7-2.6,10.3,1c2.5,2.6,15.7,6.2,19.5,5.3c5.8-1.5,21.4,8,27.3,16.6c2.8,4.1,11.7,8.1,15.6,7.2c8.1-2,19.1,6.1,21.7,15.9
					c0.8,2.9,1.9,5.6,2.6,6.1c1.7,1.1-0.9,5.3-6.5,10.7c-3.6,3.4-4.5,4.9-3.5,5.9c1,1,2.7,0.1,6.7-3.6c5.8-5.4,7.8-5.9,10.7-3
					c1.8,1.8,1.7,2.1-0.7,4.7c-1.4,1.5-3.5,2.8-4.5,2.9c-1.1,0-0.6,0.6,1,1.2c2.3,0.9,3.5,0.7,5.9-1.3c6.2-5,7.7-5.3,13.2-2.2
					c3.6,2,5,3.5,4.9,5.2c-0.5,4.5,0.6,5.5,3.7,3.5c2.5-1.6,4.2-1.7,12.5-0.6c8.8,1.2,10,1.7,14.2,5.9c3.1,3.1,6.7,5.2,11.1,6.5
					c6,1.7,6.6,2.3,7.7,6.3c1.6,5.8-0.3,12.3-5.2,18.4c-2.1,2.6-4.7,6.5-5.8,8.6c-1.1,2.1-3.3,5.2-5,6.9c-2.9,2.9-3,3.6-2.3,10.4
					c1.4,13.3-5.1,38.1-11.4,43.4c-2,1.7-3.8,2.1-7,1.6c-2.7-0.4-4.6-0.1-5.1,0.7c-0.5,0.7-3,2.3-5.7,3.5c-2.7,1.2-6.7,3.7-8.9,5.6
					c-3.8,3.3-3.9,3.6-2.7,7.5c1.5,4.5,0.5,9.8-2.7,14.3c-1,1.5-1.9,4-1.9,5.5s-1.2,4.5-2.7,6.5c-1.5,2-4.4,6.6-6.5,10.2
					c-5,8.9-8.1,10.4-15.4,7.8c-6.3-2.3-9.7-2.5-9.7-0.8c0,0.7,1.3,1.8,2.8,2.5c1.5,0.7,3.9,3.6,5.3,6.4c2.1,4.2,2.3,5.6,1.2,8
					c-1.7,3.7-8.1,6.8-14.1,6.8c-5.3,0-6.6,1.3-4.8,4.7c1.1,2.1,0.4,5.5-1.8,8.1c-0.2,0.2-2-0.5-4.1-1.6c-5-2.6-6.7-0.9-4.2,3.9
					c1,2,3,3.9,4.3,4.4c2.3,0.7,2.4,0.9,0.5,3c-1.1,1.2-1.7,3.1-1.3,4.1c0.4,1.1-0.5,3.6-2.4,5.9c-3,3.9-3,4.2-1.1,7.1
					c1.1,1.7,2.8,3.3,3.8,3.7c3.6,1.4,4.1,6,1.4,11.3c-2.7,5.3-3.1,10.7-1,13.2c1.2,1.5-1,3.9-3.5,5"/>
			</g>
			<g>
				<polyline class="st0" points="15.2,499.8 14,501.3 15.6,502.6 				"/>
				<path class="st12" d="M18.9,504.7c0.9,0.2,1.7,0,3-0.6c1.6-0.7,3.2-2.3,3.6-3.6c0.5-1.7,1.4-2.1,3.5-1.6
					c1.9,0.5,3.1,0.1,3.9-1.3c2.4-4.3-3.7-9.8-8.2-7.4c-3.2,1.7-7.4-1.7-6.5-5.3c0.3-1.3-0.4-3.7-1.5-5.2c-2.4-3.2-6.2-3.6-14.3-1.3
					c-2.9,0.8-6.3,1.4-7.4,1.4c-1.2,0-1.8,0.4-1.4,1s0.3,1.1-0.3,1.1c-0.5,0-2.1,0.9-3.7,2.1"/>
				<polyline class="st0" points="-12,485.2 -13.5,486.5 -11.7,487.2 				"/>
				<path class="st13" d="M-7.9,488.3c1.4,0.1,2.7-0.3,4.6-1.2c3.4-1.7,4-1.7,7.7,0c2.2,1.1,5.2,1.6,6.8,1.2
					c1.5-0.4,3.1-0.2,3.5,0.5c0.4,0.7-1.3,1.5-3.8,1.9c-6.9,1.2-10.5,4-15.5,12.4c-4.2,7-4.4,7.9-2.8,9.7c1.6,1.8,2.1,1.8,4.3,0.3
					c1.4-1,3.8-4.5,5.5-7.9v0c3.2-6.6,9-11.5,13.8-11.5c3.4,0,3.4,0.6,0.3,4.5"/>
			</g>
			<path class="st6" d="M23.8,512.5c4.2-2.1,4.6-2.7,3.1-4.2c-1.5-1.5-2.4-1.4-7.2,0.7c-5.7,2.5-7.5,5.9-3.1,5.9
				C17.9,515,21.2,513.9,23.8,512.5z"/>
			<path class="st14" d="M44.8,503.6c2.5-1.7,2.6-2.1,0.8-3c-2.6-1.4-10.1,1-10.1,3.3C35.4,506.2,41.3,506,44.8,503.6z"/>
			<path class="st15" d="M133.5,1013.6c0-0.5,0.6-1.6,1.4-2.4c0.8-0.8,1-1.4,0.4-1.4c-0.5,0-1.6,0.9-2.4,1.9
				c-1.1,1.5-1.9,1.7-3.7,0.6c-1.3-0.7-1.6-1.3-0.7-1.3c0.9,0,1.2-0.6,0.8-1.2c-0.8-1.2,1.3-1.6,7.1-1.2c5.2,0.4,5.7,1.1,2.5,3.6
				C135.9,1014.6,133.5,1015.2,133.5,1013.6L133.5,1013.6z"/>
			<g>
				<path class="st0" d="M1121.7,984.8c-0.7-0.2-1.3-0.4-1.8-0.8h0c-0.7-0.4-1-1-0.8-1.7"/>
				<path class="st16" d="M1121.7,979.5c3.3-2.5,9.7-5.7,19.3-9.7c4.9-2,12.3-6.3,16.5-9.5c7.1-5.4,7.7-5.6,9.2-3.6
					c2.1,3.1,0.9,5.3-4.4,7.7c-2.5,1.1-5.7,3.3-7,4.9c-1.3,1.5-3.5,2.8-4.8,2.8s-4.4,1.8-6.8,4c-6.6,5.9-14.6,9.4-20,9"/>
			</g>
			<g>
				<path class="st0" d="M1038.9,969.5c-0.5-0.1-1-0.4-1.8-0.9v0c-0.7-0.5-1-0.9-1-1.6"/>
				<path class="st17" d="M1037.6,963.2c0.3-1.3,0.6-2.9,0.6-4.2c0-3.3,0.3-3.6,2.7-2.8c1.5,0.5,4.5,1,6.8,1.1
					c2.3,0.1,4.5,0.2,5,0.3c2,0.4-3.3,6.3-8,9.1c-1.8,1-2.9,1.7-3.8,2.2"/>
			</g>
			<path class="st18" d="M1173.6,958.3c-0.4-0.4,0.6-1.8,2.2-3c2.4-1.9,2.7-2.7,1.6-4.7c-1.5-2.8,0.7-5.9,6-8.1
				c4.1-1.7,5.1-5.1,4-13.3c-0.7-5.7-0.7-6,1.2-4.5c1.4,1.2,1.8,2.7,1.3,5.4c-0.6,3-0.1,4.5,2.4,7.5c2.7,3.2,3.5,3.5,5.6,2.4
				c2.1-1.1,2.3-1,1.7,0.7c-0.4,1.1-0.8,2.2-0.8,2.5s-1.7,1.3-3.8,2.4c-2.1,1.1-6.2,3.9-9.2,6.4c-4.8,3.9-9.6,7.1-10.9,7.1
				C1174.6,959,1174.1,958.7,1173.6,958.3L1173.6,958.3z"/>
			<g>
				<polyline class="st0" points="1112.6,870.9 1113.8,872.5 1113.5,874.5 				"/>
				<path class="st19" d="M1113,878.4l-0.5,3.4c-0.9,6.8-2.4,11.3-5.3,16.4c-4.5,7.9-11.1,15.4-14.6,16.5c-1.3,0.4-4.2,3.4-6.5,6.6
					c-2.3,3.2-4.7,5.8-5.4,5.8c-0.6,0-3.3,2.8-6,6.1c-4.4,5.6-5.3,6.1-9.9,6.2c-3.6,0.1-6.3,1-9.2,3.3l-1,0.8"/>
				<polyline class="st0" points="1053.1,944.7 1051.5,945.9 1050.1,944.5 				"/>
				<path class="st20" d="M1047.3,941.6c-1.4-1.2-2.1-1-3.9,0.2c-3,2-8.8,0.8-13.4-2.7c-2.4-1.9-2.6-2.5-1.4-4.9
					c1.1-2,1.1-3.4,0.1-5.6c-0.7-1.6-1.3-3.9-1.3-5.2c0-2.9-1.9-3-3.4-0.2c-0.6,1.1-1.5,1.7-1.9,1.3c-0.4-0.4,1-2.7,3-5.1
					c5.1-5.8,3.1-7.4-3.6-2.9c-2.9,2-5.5,4.1-5.7,4.7c-0.2,0.7-1.6-1.4-3.1-4.5c-1.6-3.4-4.4-6.8-6.9-8.4c-3.8-2.5-5-2.7-12.2-2
					c-10.6,1.1-20.8,3.7-27.4,7c-3,1.5-9,3.1-13.5,3.6c-4.5,0.5-11.6,2.2-15.8,3.7c-6.4,2.4-8.3,2.7-11.6,1.6
					c-4.4-1.4-6.2-4.4-3.4-5.5c1-0.4,2.9-3.1,4.1-6c2-4.7,2.1-6.1,0.9-12.2c-1-5-1-9.7-0.1-17.4c0.7-5.8,0.9-11.7,0.6-13.1
					c-0.4-1.4,0.2-4.8,1.3-7.6c1.9-4.9,2.3-5.2,15-10.6c7.2-3,14.5-5.5,16.3-5.5c4.9,0,10.9-4.6,14.3-11c2.1-3.9,3.5-5.4,4.7-4.9
					c3.4,1.3,4.1,1.1,3.9-1.5c-0.2-1.6,0.5-2.8,1.9-3.3c1.2-0.4,3.5-2.5,5-4.8c1.6-2.3,4.8-4.9,7.4-5.9c4.3-1.7,4.7-1.7,7.1,0.4
					c4.3,3.9,7.4,5.1,8.9,3.3c0.7-0.9,1-1.9,0.5-2.3c-1.4-1.4,4.8-9.1,7.9-9.9c1.6-0.4,5-1.7,7.4-3c3.8-1.9,5.2-2,9.4-0.9
					c9.2,2.5,9.5,2.9,6.1,8.1c-4.4,6.7-3.2,9.3,7.6,16.9c5,3.5,9.7,6.2,10.5,5.9c0.8-0.3,3.2-3,5.4-6c3-4.1,4.2-7.2,4.6-12
					c0.7-6.9,4-16.5,5.7-16.5c0.6,0,1.8,2.8,2.9,6.3c1,3.5,3.1,7.5,4.7,9c3.7,3.5,5.8,13.2,4.2,18.9c-1.1,3.8-0.9,4.4,2.9,8.3
					c2.2,2.3,5.8,7.9,7.8,12.4s5.8,11,8.3,14.3l2.2,2.8"/>
			</g>
			<g>
				<polyline class="st0" points="449.3,799 450.2,797.2 449.5,795.3 				"/>
				<path class="st21" d="M448.3,791.5l-0.1-0.2c-1.1-3.3-1.6-7.2-1.2-8.9c0.5-2,0-4.3-1.5-6.7c-1.3-2.1-3.1-6.7-4.1-10.2
					c-1.4-4.8-3.3-7.9-7.1-11.7c-7.5-7.3-8.5-10.2-6.1-18.2c4.7-16.3-0.4-25.8-12.9-23.9c-4.9,0.7-5,0.6-5.7-2.8
					c-0.5-2.6-2-4.2-5.5-6c-4.7-2.4-6.7-2.4-12.4-0.1c-1.3,0.5-6.6,2.4-11.8,4.1c-7.8,2.6-10.2,2.9-13.6,1.9
					c-3.2-0.9-5.9-0.7-12.5,1.1c-6.8,1.9-9.3,2.1-13,1.1c-7.7-2.1-20.9-14-22.8-20.5c-1.5-5-10.5-16.7-13.6-17.6c-2-0.5-2.2-1-1-1.7
					c1.2-0.8,1-1.2-0.9-1.7c-3-0.8-3.3-3.2-0.4-3.2c1.8,0,1.8-0.2,0.3-1.2c-1.1-0.7-1.2-1.2-0.3-1.2c0.9,0,0.6-1.5-1-4.2
					c-2.3-3.8-2.3-4.3-0.6-6.3c5.3-5.8,6.4-18.4,2.4-26.3c-1.9-3.8-0.7-9,3.4-14.4c1.5-2,4.5-7,6.7-11.1
					c3.7-7.1,12.1-16.9,14.3-16.9c2.5,0,10.5-8.7,10.5-11.3c0-6.1,3.6-12.1,9.5-15.9c3.2-2,6.9-5.5,8.3-7.7c2.8-4.5,3.2-4.7,6.5-2.4
					c1.3,0.9,4.5,2,7.1,2.4c4,0.7,5.9,0.2,11.8-3c10.2-5.5,16.5-6.8,28.2-6.1c7.7,0.5,11.2,0.2,14.9-1.3c5.5-2.2,10.2-0.9,9,2.5
					c-0.4,1-0.2,2.5,0.5,3.3c0.8,1,0.8,2.5,0,4.8c-1.1,2.9-0.8,3.7,1.8,6.5c1.7,1.8,4.7,3.6,6.8,4c9.5,1.9,12.2,3.1,14.2,6.4
					c1.4,2.4,3.3,3.7,6.4,4.3c2.4,0.5,5.9,1.6,7.8,2.6c3.2,1.6,3.6,1.6,6.3-0.9c1.8-1.7,2.6-3.5,2.2-4.8c-0.4-1.2-0.1-3.2,0.6-4.5
					c1.8-3.4,7-3.1,15.1,1c8.8,4.4,25.6,7.6,31.5,5.9c2.9-0.8,5.6-0.8,8.1,0c8.2,2.5,12.3,0.5,13.5-6.3c0.4-2.3,1-4.1,1.4-4.1
					c0.8,0,1.2-3.4,1.3-10.9c0-2.4,0.6-4.4,1.3-4.4c0.8,0,0.8-0.9-0.1-2.5c-1.5-2.7-4.4-2.7-11.4,0.2c-3.3,1.4-4.3,1.3-7.3-0.5
					c-3.9-2.3-7.9-2.6-9-0.8c-0.9,1.4-6.9,0.4-10.2-1.6c-2.4-1.5-4.6-5.8-4.6-9.1c0-1.2-1.2-3.1-2.7-4.1c-2.3-1.6-2.4-2-0.9-3
					c1-0.6,3-0.9,4.5-0.5c1.9,0.4,3.6-0.3,5.8-2.5c2.1-2.1,4.6-3.2,7.4-3.3c2.3-0.1,5.7-1.2,7.5-2.4c3.9-2.6,12.8-1.9,19.6,1.6
					c9.3,4.6,17.5,4.4,20.8-0.7c1.7-2.6,1.7-3.2,0.1-5.7c-1-1.5-5.8-5-10.6-7.8l-5.3-3"/>
				<polyline class="st0" points="553.5,497.8 551.7,496.9 552.6,495.1 				"/>
				<path class="st22" d="M554.3,491.4c0.2-0.8,0.3-1.4,0.1-1.6c-0.4-0.4-0.2-1.4,0.3-2.2c0.5-0.9,1.1-2.2,1.2-3.1
					c0.3-1.8-1.6-1.3-11,2.9c-5.5,2.4-6.3,3.2-5.1,4.6c0.8,1,2.6,1.8,4,1.8c1.9,0,1.5,0.6-2,2.4c-4.2,2.2-4.7,2.3-7.5,0.5
					c-2.4-1.5-2.7-2.3-1.5-3.6c1.1-1.3,0.9-1.8-0.8-2.5c-1.2-0.5-2.8-1.6-3.5-2.5c-3.4-4.5-14.1,7.4-17.2,19.1
					c-1.4,5.3-1.4,5.7,1,7.6"/>
				<polyline class="st0" points="513.8,515.9 515.4,517.1 513.5,517.5 				"/>
				<path class="st23" d="M509.5,518.3c-2.8,0.5-6.3,0.5-8,0c-3.4-0.9-7.8,0.5-7.8,2.5c0,0.6-0.8,0.8-1.8,0.4s-2.5-0.1-3.5,0.7
					c-1.4,1.2-1.3,2.2,1.1,6.6c2.6,4.8,2.7,5.5,1,8.7c-2,4-3.9,3.7-6.7-1.1c-2-3.4-2-3.4,0.7-3.8c3.3-0.5,3.5-2.6,0.3-3.1
					c-7.3-1.2-11.2-5-11.2-11.1c0-4.7-4.4-9.9-9.7-11.5c-2.8-0.8-5.8-2.6-6.7-3.9c-0.9-1.3-3.6-3.2-5.9-4.1c-2.3-1-5-2.8-5.8-4
					c-1.2-1.8-2-2-3.9-1c-1.3,0.7-2.3,2-2.3,2.9c0,3.1,15.1,16.9,22.4,20.7c7.8,3.9,9,5.3,3.6,4.2c-4.8-1.1-6.1,0-4.5,3.6
					c1.1,2.5,1,3.3-1.2,5.4"/>
				<polyline class="st0" points="458.3,531.9 456.8,533.3 457.2,531.3 				"/>
				<path class="st24" d="M457.4,527.3c-1-5.2-7.2-11.2-12.4-11.2c-2.2,0-10.8-8.3-13.1-12.7c-2.4-4.7-5.1-5.6-8.9-3
					c-5.7,3.9-10,5.2-14.5,4.4c-6-1-9.7,1.1-8.8,4.9c0.5,2,0.2,2.9-0.9,2.9c-0.9,0-3.2,1.3-5,3c-1.9,1.6-3.8,3-4.3,3
					c-1.5,0-5.6,7.5-5.6,10.1c0,2.5-4.6,7.5-9.1,9.8c-1.4,0.7-4.7,1.3-7.3,1.3c-3.6,0-5.1,0.6-6.1,2.4c-1.3,2.4-1.3,2.4-4.4-0.6
					c-2.8-2.8-4.5-3.6-10.2-4.4c-3-0.5-3.5-7.3-1.3-17c1-4.2,1.4-8.8,1.1-10.3c-1.1-4.5,2.4-7.1,8.2-6.2c13.5,2.1,21.4,2.2,23.3,0.3
					c2.5-2.5,3.7-11,2.1-15.7c-1-3.1-2.4-4.3-6.6-5.9c-6.1-2.3-6.3-4.6-0.3-4.7c2.3,0,5.6-1,7.3-2.1s3.7-1.8,4.3-1.4
					c1.7,1,8-2.6,10.1-5.8c1-1.5,3-3.1,4.4-3.5c1.4-0.4,5.3-3.1,8.5-6.2c4.6-4.3,7-5.6,11-6.1c4.9-0.6,9.8-4.6,7.5-6.1
					c-1.4-0.9-2.6-6.7-1.8-8.8c0.4-0.9,1.8-2.5,3.4-3.6"/>
				<polyline class="st0" points="429.8,433.1 431.5,432 431.1,434 				"/>
				<path class="st25" d="M430.5,438c-0.5,3.2-0.2,3.7,1.5,3.4c1.1-0.2,3.3-1,4.8-1.8c2.2-1.2,2.8-1.2,3.4,0.4
					c1,2.6-1.8,5.7-3.7,4.1c-1.1-0.9-1.8-0.9-2.4,0.1c-0.6,1-1.1,0.9-1.8-0.2c-0.5-0.9-1.2-1.3-1.6-1c-0.3,0.3,0.6,2.1,2.1,4
					c2.5,3.1,3,3.3,6.5,2c3.1-1.1,4.5-1,7.1,0.4c2.9,1.5,3.9,1.4,9.6-0.7c4.9-1.9,6.9-2.1,9.1-1.1c2,0.9,3.5,0.9,5.4-0.1
					c5.3-2.7,6.8-4.8,6.1-8.6c-1-5.6,0.8-7.5,5.5-5.7c3.2,1.2,4.1,1.2,5.6-0.3c1.5-1.5,1.4-2.1-1.1-4.8c-2.4-2.6-2.6-3.2-1.1-4.2
					c1-0.6,4.5-0.9,8-0.5c6.3,0.7,14.1-1.8,12.7-4c-1.2-1.9-8.4-2.5-14.5-1.1c-5.4,1.2-6.8,1.1-11-0.8c-6.4-2.9-7.2-6.3-2.8-12.5
					c5.7-7.9,6.7-10.4,5.1-12.4c-2.4-2.9-4.8-1.9-10.2,4.1c-2.9,3.2-6.8,6.5-8.8,7.3c-1.9,0.8-4.3,3-5.3,4.9c-1.6,3.1-1.6,3.8,0,6.2
					c1,1.5,2.9,3.1,4.2,3.5c3.6,1.1,2.9,3.3-2.3,6.9c-1.6,1.1-3.7,4.2-4.7,6.9c-1.3,3.4-3.2,5.7-6.2,7.4c-4.2,2.4-4.4,2.4-6.7,0.3
					c-1.3-1.2-2.7-3.6-3.1-5.4c-0.4-1.8-2.2-5-3.9-7.1l-0.7-0.8"/>
				<polyline class="st0" points="434.1,425.3 432.8,423.7 431.1,424.8 				"/>
				<path class="st26" d="M427.7,426.8c-2,1.1-4.3,1.9-5.4,1.9c-3.7,0-8.1-4.1-8.4-7.8c-0.1-1.9-0.6-4.3-1.1-5.4
					c-1.1-2.6,4.2-7.6,9.7-9.1c5.5-1.5,16.7-9.4,18.6-13c0.8-1.6,3.7-4.9,6.4-7.3s4.8-4.9,4.8-5.5c0-0.6,2.5-2.1,5.6-3.2
					c3.1-1.1,8.3-3.1,11.5-4.4c4-1.6,9-2.5,15.4-2.7c11.1-0.3,18.4,1.2,24.5,5c3,1.9,5.4,2.5,7.7,2.1c4.1-0.8,25.8,5.9,26.7,8.3
					c0.9,2.4-5.3,4.6-10.7,3.8c-2.5-0.4-7.5-1.3-11.3-2.1c-5.1-1.1-7.2-1.1-8.2-0.1c-1,1-0.5,1.7,1.9,2.8c1.8,0.8,4,3,4.9,4.8
					c2.4,4.6,10,8.4,14,6.9c3.8-1.4,3.8-1.9-0.2-4.1c-3.7-2-2-2.4,2.7-0.7c3.7,1.4,7.9-0.3,6.9-2.9c-0.5-1.2,0.8-2.1,4.5-3
					c7.8-2,8.4-2.3,7.7-3.9c-2.4-6-2.5-5.8,1.1-5.4c1.9,0.2,3.3,1,3.1,1.8c-0.2,0.8,0.8,2,2.2,2.8c2.1,1.1,3.7,0.7,9.3-2.2
					c8.3-4.3,14.7-5.7,17.1-3.8c1.3,1.1,3.6,1.1,10,0c4.5-0.8,8.8-1.1,9.4-0.7c0.6,0.4,1.5,0.1,1.9-0.5c0.9-1.5-1.6-4.9-3.1-4.1
					c-1.7,1.1-7.3-0.8-6.1-2c1.2-1.2,34.1,6.4,36.1,8.4c1.3,1.3,5.5-0.4,5.5-2.3c0-0.6-2.3-2.3-5.2-3.7c-8.9-4.3-9.5-11.2-1.1-13.3
					c4.8-1.2,6.9,0.2,13.7,9.1c8.7,11.6,8.5,11,5.6,15c-2.1,3-2.2,3.7-0.8,4.2c2.8,1.1,8.7-2.7,9.5-6c1-3.9-0.8-7.2-5.2-9.5
					c-3.4-1.8-5.9-5-5.9-7.7c0-0.9,1.3-1.2,3.8-0.7c3.8,0.7,7-0.7,15.7-6.9c2-1.4,5.3-2.3,8.7-2.4c6.9-0.2,9.1-1.3,7.1-3.7
					c-0.8-0.9-1.2-1.9-0.9-2.2c1.5-1.5,21-4.2,25.4-3.6c4.3,0.6,5.6,0.3,9.2-2.4c2.3-1.7,4.1-3.6,4.1-4.2c0-1.4-10.3-1.3-11.2,0.1
					c-1.2,2-2.8,1.3-2.4-1c0.4-2-0.6-2.3-9.2-3c-23.5-1.8-25.4-2.3-22.6-5.1c2.5-2.5,8.6-2.4,13.6,0.1c2.1,1,5.5,1.9,7.7,1.9
					c2.1,0,4.2,0.5,4.6,1.2c0.4,0.6,2.5,1.2,4.6,1.2c5.9,0,17.3,2.5,16.6,3.7c-0.3,0.6,0.8,1,2.4,1s4.8,0.9,6.9,2
					c2.8,1.5,6.7,2,15,2.1c8.9,0,11.9,0.5,14.5,2.2c1.8,1.2,3.2,2.5,3.2,2.9c0,0.4-2.7,2.2-6.1,4.1c-8,4.4-6.3,6.4,3.4,3.8
					c6.3-1.6,7.7-1.6,12.9-0.1c4.3,1.3,6.9,1.4,9.8,0.6c2.9-0.8,5.9-0.7,10.9,0.7c5.3,1.4,8,1.5,11.3,0.6c7.6-2.1,16.9-1.5,22.4,1.4
					c2.7,1.5,7.7,4.2,11,6c6,3.3,6.3,3.3,10.4,1.4c3.5-1.6,5.4-1.7,10.5-0.7c5.1,1,7,0.9,9.8-0.6c2.8-1.5,3.3-2.2,2.2-3.5
					c-2.1-2.5,5.3-3.4,14.3-1.8c4.1,0.7,9.4,1.5,11.7,1.6c2.3,0.2,6.7,1.5,9.9,2.9c4.8,2.2,8.4,2.7,22.5,3
					c13.4,0.4,17.6,0.9,20.8,2.6c3.3,1.7,7,2.2,19.4,2.3c11.4,0.1,16.5,0.7,19.9,2.1c5.5,2.3,7.6,1.5,4.7-1.8
					c-2.1-2.4-2.1-2.4,6.1-1.6c13.8,1.4,30.4,4.4,36,6.6c2.9,1.1,8.5,2.4,12.4,2.9c3.9,0.5,9.6,2.1,12.6,3.7
					c4.6,2.3,6.1,2.6,9.1,1.6c4.1-1.4,6.7-0.4,12.9,5l0.8,0.7"/>
				<polyline class="st0" points="1093.4,395.5 1094.9,396.8 1093,397.3 				"/>
				<path class="st27" d="M1089,397.6c-3.5-0.3-8.3-1.8-10.3-3.4c-0.8-0.6-1.9-0.8-2.4-0.5c-0.6,0.3-3.3-0.2-6.1-1.1
					c-6.6-2.3-9.5-1.4-6.5,1.9c2.1,2.3,2,2.3-1.9,2c-7.3-0.5-5.3,1.7,5.4,5.8c5.8,2.3,10.9,4.4,11.2,4.7c1.1,1.1-2.5,2.4-5.2,1.9
					c-2.9-0.6-10.1,2.6-10.1,4.4c0,0.6-1.1,2.2-2.5,3.5c-2.3,2.2-2.8,2.2-5.9,0.6c-2.9-1.5-3.8-1.5-6.6-0.1c-1.8,0.9-4.8,2-6.8,2.5
					c-1.9,0.5-4.2,1.4-5,2.1c-2.4,2,1.8,7.7,7.7,10.6c3.2,1.6,5.5,3.6,6.2,5.6c0.6,1.7,1.9,4.5,2.9,6.2c1.6,2.8,1.6,3.2-0.1,3.8
					c-1.2,0.5-1.6,1.4-1.1,2.8c0.5,1.1,1,3.4,1.1,5c0.2,1.6,0.7,3.8,1.2,4.9c0.6,1.4,0.1,2.2-1.8,2.8c-2.1,0.7-3.5-0.1-6.9-3.9
					c-2.4-2.6-6.3-6.2-8.7-8c-2.4-1.8-6.8-6.4-9.7-10.3c-5.1-6.8-5.2-7.1-3.5-10.4c1-1.9,1.8-4.6,1.8-6.1c0-1.5,0.8-4,1.7-5.6
					c1.7-3.1,1-5.5-2.6-9.7c-2.4-2.7-6.7-0.7-5.6,2.7c1,3.1-2,4.1-5.5,1.8c-1.5-1-5-2.2-7.7-2.6c-4.7-0.8-5.1-0.6-6.3,2.6
					c-0.7,1.9-1,4.8-0.7,6.6c0.5,2.7,0.2,3.3-2.6,3.9c-1.9,0.4-5.1-0.1-7.8-1.2c-2.9-1.2-5.7-1.6-7.6-1c-1.7,0.5-7.4,0.9-12.7,1
					c-8.4,0.1-10,0.5-12.6,2.9c-1.6,1.5-3.6,5.2-4.3,8.3c-0.8,3-2.1,6.7-3.1,8.1c-1.6,2.5-1.5,2.8,3.2,5.1c5,2.6,10.5,3.2,14.7,1.8
					c3.2-1.1,13,6.5,16,12.5c1.2,2.4,3.3,5,4.6,5.7c4.8,2.6,5.8,19.5,1.8,30.6c-2.8,7.7-5.9,10.2-10.5,8.4c-1.8-0.7-3.4-1.2-3.6-1.2
					c-0.2,0-1.5,2.2-2.9,4.8c-1.8,3.5-2.2,5.3-1.3,6.3c1.7,2.1,0.4,4.8-3,6.3c-1.6,0.7-2.9,1.8-2.9,2.5s3.7,3.7,8.2,6.8
					c5.7,4,8.8,7,10.2,10.1c1.1,2.5,1.8,4.7,1.5,4.9s-2.7,1.5-5.4,2.9l-1.3,0.7"/>
				<polyline class="st0" points="975.3,551.8 973.5,552.7 972.7,550.8 				"/>
				<path class="st28" d="M971.1,547.3l-0.6-1.3c-3.3-7.6-6.1-10.6-11.1-11.9c-2.5-0.7-3.4-1.6-3.4-3.7c0-1.9-1.2-3.5-3.8-5
					c-3.8-2.2-3.9-2.2-7.9,0.3c-4,2.5-4.1,2.5-5.3,0.2c-0.7-1.3-1.3-3.2-1.3-4.1s-1-2.3-2.2-3c-1.8-1-2.9-0.4-6.3,3.2
					c-2.2,2.4-5.1,5-6.3,5.7c-2,1.1-2.1,1.6-0.7,3.2c0.9,1,3.9,3.2,6.7,4.8c4.5,2.5,5.3,2.6,6.8,1.1c1.4-1.4,2.6-1.5,6.9-0.3
					l1.4,0.4"/>
				<polyline class="st0" points="945.9,537.2 947.8,537.7 946.2,538.8 				"/>
				<path class="st29" d="M942.8,541.1c-3.7,2.7-5,4.4-5.6,7.2c-0.6,2.7-0.3,3.4,2.1,4.5c1.6,0.7,4,3.6,5.4,6.4
					c1.4,2.8,4.1,6.1,6.1,7.2c4.3,2.6,5.6,5.3,3.1,6.7c-2.3,1.3-1.2,3.2,1.9,3.2c3.7,0,3.7,2.2,0.1,14.9
					c-4.3,15.3-8.2,20.5-18.4,24.2c-4,1.5-8.9,2.8-10.8,2.9c-4.5,0.2-8,2.1-11,6"/>
				<polyline class="st0" points="914.3,625.9 913,627.4 912.3,625.6 				"/>
				<path class="st30" d="M910.4,622.1c-1.8-1.8-4.6-2-8.3-0.4c-4.5,1.9-7.4,4.9-8.6,8.8c-1.1,3.5,2.7,9.6,8.9,14.5
					c5.1,4,10.8,14.2,12.2,21.6c1.2,6.4-0.9,10.7-6.5,13.2c-2.5,1.1-4.9,3-5.3,4.2c-0.9,2.8-6.1,6.2-7.1,4.6c-0.4-0.6-0.4-2.2,0-3.4
					s0.4-3,0-4.1c-0.6-1.5-1.2-1.7-3.1-0.7c-1.9,1-2.7,0.8-4.3-1.5c-3.9-5.6-15-14.6-18.1-14.6c-1.1,0-1.5,1.3-1.3,4.1
					c0.2,2.3-0.3,6.7-1,9.9c-1.2,5.1-1,6.1,1.2,9c1.3,1.8,2.8,4.7,3.2,6.3c0.4,1.7,3.8,5.4,7.7,8.6c6.5,5.2,7.2,6.3,9.9,14.9
					c1.6,5.1,2.9,9.8,2.9,10.4c0,2-2.5,1.2-7.6-2.5c-5.3-3.8-8.7-9.9-11.6-20.6c-1.2-4.6-2.6-6.6-6.4-9.4c-4.7-3.5-4.8-3.8-4.5-9.5
					c0.2-3.2,0.7-7.9,1.2-10.2c0.6-3.3,0.1-5.7-2.2-10.6c-1.7-3.5-3.6-8.8-4.4-11.8c-1.7-6.8-4-7.9-8.2-4c-1.7,1.6-3.5,3-3.9,3
					c-1.9,0-4.5-4-3.8-6c1.1-3.5-5.8-15.9-9.8-17.6c-2.2-0.9-4.2-3.1-5.6-6.1c-2.4-5.2-5-7.2-7.6-5.8c-1,0.5-4.8,1.6-8.5,2.3
					c-6.8,1.4-9.3,3.5-8.4,7c0.3,1.3-0.9,2.6-3.7,4c-2.3,1.1-4.8,3.3-5.6,5c-0.7,1.6-2.4,3.3-3.6,3.7c-1.2,0.4-3.2,2.2-4.3,4
					c-1.1,1.8-4.4,5.1-7.3,7.4c-4,3.1-5.2,4.8-5,6.9c1.2,12.6-0.6,23.1-5,29.4c-4.2,6.1-4.5,6.3-8.1,4.6c-2-0.9-3.2-2.7-3.7-5.3
					c-0.4-2.2-2.8-8.4-5.3-13.7c-15.1-32.4-17.3-38.6-16-44.5c0.9-4-1.2-9.9-3.2-9.3c-0.8,0.3-1.5,1.2-1.5,2.2
					c-0.1,5.4-6.2,6.2-10.9,1.5l-0.3-0.3"/>
				<polyline class="st0" points="716.7,619.9 715.3,618.5 717.1,617.8 				"/>
				<path class="st31" d="M720.1,615.4c0.1-1-0.7-1.8-2.5-1.5c-1.1,0.2-3.6-1-5.6-2.7c-2-1.7-4-3-4.6-3c-0.6,0-1.4-1.1-1.8-2.4
					c-1.1-3.4-7.4-6.4-10.5-5c-2.8,1.3-28.5,1-32.8-0.3c-1.5-0.5-4.4-2.7-6.4-4.9c-3.5-4-3.6-4-8.9-2.6c-5,1.3-5.7,1.2-12.5-2.2
					c-5.8-2.9-7.6-4.5-9.4-8.5c-2.3-5.1-7.4-8.8-10.5-7.6c-1,0.4-2.1,2.2-2.5,4.1c-0.6,2.7,0,4.5,2.9,8.4c2,2.7,4.2,7,4.9,9.5
					c1.4,5.3,4.3,6.9,6.6,3.7c1.4-1.9,1.8-2,2.8-0.5c0.6,1,0.9,2.3,0.7,2.9c-0.7,2,6.2,5.4,9.3,4.6c1.6-0.4,5-3.1,7.6-6.1
					c4.1-4.6,5.5-4.9,4.8-1.1c-0.5,2.6,1.6,5.7,5,7.5c5.3,2.7,12.6,8.8,12.6,10.4c0,0.8-1.4,2.7-3.1,4.2c-1.7,1.6-4.1,4.9-5.4,7.4
					c-3.1,6.1-12.1,14.9-15.2,14.9c-3.5,0-8.8,3-10.9,6.2c-1,1.5-3.6,3.6-5.8,4.7c-11.2,5.6-24.7,11.3-28.5,12
					c-4.1,0.8-4.4,0.6-6.6-3.7c-1.2-2.5-2.7-7.4-3.1-11c-0.6-4.6-1.8-7.6-4.3-10.4c-1.9-2.1-3.4-4.4-3.4-5s-2.1-3.3-4.7-6
					c-3.2-3.3-5.3-7-6.7-11.5c-1.1-3.7-3.2-8.2-4.8-10.2c-10.8-13.5-14-18.2-15.7-23.2c-2.1-6.3-3.8-7.5-4.7-3.3"/>
				<polyline class="st0" points="546.6,585.5 546.3,587.5 545,585.9 				"/>
				<path class="st32" d="M542.5,582.8l-0.3-0.3c-6.2-7.8-6.9-4.2-1.2,5.2c2.7,4.5,7.1,12.4,9.7,17.6c2.6,5.2,6,11.1,7.5,13.1
					c1.6,2.1,2.8,5.3,2.8,7.5c0,4.5,1.3,7.2,6.5,13.7c2.1,2.6,4.2,6.4,4.6,8.4c0.6,2.6,2.8,5.3,7.7,9.3c7.4,6,12.3,12.2,13.5,17.4
					c0.5,2,2.2,4,4.3,5.1c3.3,1.7,4.5,1.7,14.9-0.6c6-1.3,12.3-3.1,14.4-4.1"/>
				<polyline class="st0" points="628.7,674.2 630.5,673.3 630.8,675.2 				"/>
				<path class="st33" d="M631.5,679.2c0.3,3.6-1.1,6.7-8.6,21.2c-9,17.3-9.5,17.9-18.5,25c-5.1,4-10.4,8.9-11.8,10.9
					s-5.9,7.3-10,11.9c-12,13.3-13.6,25-5.7,40.7c2,4,2.8,7,2.3,8.9c-0.4,1.6-0.1,5.6,0.6,8.9c1.1,5.2,1,6.6-0.9,10.4
					c-2.8,5.5-5,7.4-12.8,11.4c-3.4,1.7-6.2,3.6-6.2,4.2s-2.4,3.8-5.3,7.1c-2.9,3.3-5.3,6.5-5.3,7.2s1.1,3.3,2.4,6
					c4,7.9,1.3,13.6-8.3,17.6c-4.1,1.7-5.4,5.1-4.4,11.3c0.5,3.2,0.2,4.3-1.6,5.3c-1.3,0.7-3.6,3.2-5.1,5.6
					c-4.8,7.6-18.8,21.1-25.1,24.2c-5.3,2.7-6.6,2.9-10.5,1.8c-3.4-0.9-6.2-0.8-11.9,0.6c-9.3,2.3-8.3,2.4-11.9-1.2l0,0
					c-2.5-2.5-2.9-3.8-2.4-7.2c0.5-3.2,0-5.1-2.2-8.5c-1.6-2.3-2.9-4.8-2.9-5.6c0-0.7-2.1-4.1-4.6-7.5c-3.9-5.3-4.8-7.4-5.4-14.1
					c-1.1-11.8-4.9-24.6-10-33.8c-2.5-4.6-4.9-10.5-5.3-13.1c-0.9-5.7,1.4-14.1,6.7-24.4l1.7-3.2"/>
			</g>
			<g>
				<path class="st0" d="M626.6,542.4c0.5-0.3,1.2-0.6,1.8-0.9v0c0.7-0.4,1.3-0.7,1.7-1"/>
				<path class="st34" d="M631.8,537.1c0.1-0.7,0.1-1.5,0.1-2.5c0-3.2-0.7-5.7-1.8-6.7c-1-0.8-2.7-3.1-3.7-5
					c-1.6-3.2-1.6-3.4,0.1-2.8c2.3,0.9,5.4-0.2,5.4-1.8c0-0.6-1.1-2.7-2.4-4.6c-2-2.8-2.8-3.2-4.7-2.2c-1.5,0.8-2.3,0.8-2.3,0
					c0-0.7-2.1-2.3-4.7-3.6c-5.7-2.9-7.7-6.1-6-9.5c1.3-2.5,6.2-4.3,8.2-3c2.8,1.7,3.6-0.8,1.3-4c-5.5-7.8-13.3-7.3-22.8,1.5
					c-6.2,5.7-6.7,7.2-3.2,9c1.3,0.7,2.4,2.1,2.4,3s2.1,4,4.7,6.8c5.9,6.4,7,9.3,6.3,16.9l-0.2,2.2"/>
				<polyline class="st0" points="608.2,532.9 608,534.9 609.8,535.8 				"/>
				<path class="st35" d="M613.1,537.5l3,1.5c4.5,2.3,8.3,4.2,8.5,4.2c0,0,0.2,0,0.3-0.1"/>
			</g>
			<g>
				<polyline class="st0" points="621.2,804.9 622.1,803.1 622.9,804.9 				"/>
				<path class="st36" d="M624.4,808.6c2,5.6,1.1,9.8-3.8,23.5c-3,8.4-6.3,18.5-7.3,22.4c-3,12.5-4.8,15.5-9.7,17
					c-5.3,1.6-4.8,1.6-7.7-0.1h0c-3.3-1.9-3.8-2.9-4.7-9.9c-0.7-5.6-0.4-6.8,2.9-12.2c3.4-5.5,3.6-6.6,2.9-12.5
					c-1.1-8.6,0.8-13.2,5.8-14.3c4.7-1,15-10.1,17.4-15.4l0.2-0.4"/>
			</g>
			<g>
				<path class="st0" d="M1179,852.4c-0.4-0.5-0.9-0.9-1.4-1.5h0c-0.5-0.5-0.9-1-1.3-1.5"/>
				<path class="st37" d="M1173.9,846.2c-1.4-2.1-2.2-3.7-2.2-4.8c0-4,0.6-3.6,4,2.2c1.6,2.8,4.6,6.6,6.5,8.5c2,1.9,3.6,3.9,3.6,4.4
					c0,1.9-1.7,1-5.4-2.7"/>
			</g>
			<path class="st38" d="M650.8,849.2c0-0.6,0.5-1.2,1.2-1.2c0.6,0,1.2,0.5,1.2,1.2s-0.5,1.2-1.2,1.2
				C651.3,850.4,650.8,849.9,650.8,849.2z"/>
			<path class="st0" d="M1274.3,847c-0.6,0.8-1.1,0.8-1.6,0.1v0c-0.4-0.6-0.2-1.4,0.3-1.8"/>
			<path class="st39" d="M659.1,845.1c0-0.3,0.5-0.8,1.2-1.3c0.6-0.4,1.2-0.2,1.2,0.5s-0.5,1.3-1.2,1.3
				C659.6,845.7,659.1,845.4,659.1,845.1z"/>
			<path class="st40" d="M1242,833.2c-1.2-3,0.3-4,3.6-2.6c2.8,1.3,2.9,1.5,0.9,2.9C1243.8,835.5,1242.9,835.4,1242,833.2z"/>
			<g>
				<path class="st0" d="M1251.5,828.2c-0.7,0.1-1.4,0-1.9-0.3h0c-0.9-0.6-1.2-1.1-1-1.5"/>
				<path class="st41" d="M1251.8,825.7c0.2,0,0.4,0,0.6,0.1c2.9,0.4,2.9,0.5,0.9,1.8c-0.1,0.1-0.2,0.1-0.3,0.1"/>
			</g>
			<path class="st42" d="M1194.4,823.6c-2.4-5.2-1.6-7.2,0.9-2.2c2.6,5.2,2.7,5.4,1.4,5.4C1196.2,826.8,1195.2,825.3,1194.4,823.6z"
				/>
			<path class="st0" d="M1199.6,823.5c-0.4,0.9-0.6,0.6-0.7-0.8h0c0-1.2,0.2-1.9,0.6-1.6"/>
			<g>
				<path class="st0" d="M1296.7,811.8c-0.8,0.4-1.3,0.2-1.7-0.4v0c-0.5-0.8-0.6-1.5-0.2-1.9"/>
				<path class="st43" d="M1297.2,809.2c0.1,0,0.2,0,0.3,0.1c1.8,0.4,1.9,0.5,0.2,1.9"/>
			</g>
			<path class="st39" d="M597,805.5c-0.4-0.6-0.2-1.2,0.5-1.2c0.7,0,1.3,0.5,1.3,1.2s-0.2,1.2-0.5,1.2
				C598,806.7,597.4,806.2,597,805.5z"/>
			<g>
				<path class="st0" d="M1117.4,795c-0.6-0.2-1.2-0.4-1.9-0.6h0c-0.7-0.2-1.3-0.4-1.9-0.6"/>
				<path class="st44" d="M1109.9,792.3c-3.8-1.7-6.1-3.7-8.2-6.8c-3.4-5-9.5-8.8-12.7-7.8c-1.3,0.4-3.4,2.6-4.7,4.9
					c-2.3,3.9-2.7,4.1-6.9,3.3c-2.4-0.4-5.8-2.1-7.6-3.7c-2.2-2-3.9-2.7-5.6-2.1c-1.3,0.4-3.3,0.3-4.3-0.3c-1.6-0.9-1.5-1.3,1.1-3
					c3-2,3-2,1-6.2c-1.6-3.4-3.9-5.2-11.2-8.8c-5-2.5-10.7-4.6-12.6-4.6c-4.4,0-6.2-4-2.9-6.5c2-1.4,1.7-1.8-3.5-4.3
					c-5.5-2.6-5.5-2.8-2.9-4.2c1.5-0.8,3.8-1.5,5.3-1.5c2.8,0,6.3,3.9,6.3,7.1c0,1.1,1.1,3.4,2.6,5.2c2.5,3.2,2.6,3.2,4.4,0.9
					c1-1.3,4.3-3.7,7.3-5.5l2-1.1"/>
				<polyline class="st0" points="1058.5,746.2 1060.3,745.2 1062.1,746.1 				"/>
				<path class="st45" d="M1065.9,747.8l2,0.9c4.2,1.9,10,4.3,13.1,5.4s9.2,4.4,13.6,7.3c8.4,5.5,12.1,10.2,10,12.7
					c-1.7,2.1,5,11.4,12,16.7c6.2,4.7,7.3,5.9,3,4.8"/>
			</g>
			<path class="st0" d="M1168.5,795.6c-0.4-0.2-1-0.6-1.5-1.3h0c-0.8-0.9-1-1.5-0.6-1.7"/>
			<path class="st46" d="M968.5,789.5c-1.7-0.9-2.2-1.6-1.2-1.7c2.1,0,5.5,1.9,4.7,2.7C971.7,790.9,970.1,790.4,968.5,789.5z"/>
			<path class="st47" d="M988.5,787.9c3.3-4.7,8.6-6.7,13.4-5.2c3.5,1.1,3.6,1.2,0.8,1.3c-1.7,0.1-5.5,1.7-8.6,3.7
				C987.1,792.2,985.4,792.3,988.5,787.9L988.5,787.9z"/>
			<path class="st48" d="M1159.8,789.6c-1.6-1.9-1.2-2.2,1.7-1.1c1,0.4,1.9,1.2,1.9,1.8C1163.4,791.9,1161.5,791.5,1159.8,789.6z"/>
			<g>
				<path class="st0" d="M1166.6,789.4c-0.2,0.6-0.8,0.2-1.2-0.9h0c-0.2-0.5-0.4-1.2-0.5-1.9"/>
				<path class="st49" d="M1164.9,783.7c0.2,0.1,0.5,0.6,0.9,1.7c0.3,0.9,0.6,1.8,0.7,2.6"/>
			</g>
			<path class="st50" d="M1256.7,789.6c0-0.3,0.5-0.8,1.2-1.3s1.2-0.2,1.2,0.5s-0.5,1.3-1.2,1.3S1256.7,789.9,1256.7,789.6z"/>
			<g>
				<path class="st0" d="M956.6,785c-0.8,0-1.5-0.1-2-0.3v0c-0.8-0.3-1.1-1-0.9-1.6"/>
				<path class="st51" d="M957,782c2.5-0.2,5.7,0.2,6.2,1.1c0.4,0.6,0,1.2-0.8,1.2c-0.9,0-2.6,0.2-3.9,0.5c0,0-0.1,0-0.1,0"/>
			</g>
			<path class="st52" d="M972.1,783.8c-2.1-2.6,0.3-3.4,5.9-1.9c5.6,1.5,5.6,1.7-0.2,2.8C974.8,785.3,973.1,785,972.1,783.8z"/>
			<path class="st53" d="M1149.5,783.1c-0.8-1.3-1-2.4-0.3-2.4c0.6,0,1.7,1.1,2.4,2.4c0.7,1.3,0.8,2.4,0.3,2.4
				C1151.4,785.4,1150.3,784.4,1149.5,783.1z"/>
			<g>
				<path class="st0" d="M1158.3,783.2c-0.5-0.4-1-0.9-1.5-1.4h0c-0.6-0.6-1-1.1-1.2-1.6"/>
				<path class="st54" d="M1157.4,780.1c0.4,0.3,0.8,0.7,1.3,1.2c1.5,1.6,2.2,2.9,1.6,2.9c-0.1,0-0.2,0-0.2,0"/>
			</g>
			<g>
				<path class="st0" d="M937.4,781.9c-0.6-0.1-1.3-0.2-2-0.3l0,0c-0.6-0.1-1.3-0.2-2-0.3"/>
				<path class="st55" d="M929.4,780.6c-2.8-0.6-5.4-1.2-7.2-1.8c-3.1-1-6.7-1.5-8-1c-2.7,0.9-14.2-2.5-14.2-4.2
					c0-3.8,10.6-4.1,16.2-0.4c2.1,1.4,3.8,1.4,8.2,0.4c4.9-1.1,5.9-1,8.8,1.2c1.8,1.3,3.8,2.4,4.5,2.4c2.3,0,9.4,4,8.8,4.9
					c-0.3,0.5-1.2,0.9-2,0.8c-0.5-0.1-2.5-0.3-5-0.7"/>
			</g>
			<g>
				<path class="st0" d="M1148.9,777.4c-0.5-0.4-1-0.9-1.5-1.4h0c-0.6-0.6-1-1.2-1.1-1.6"/>
				<path class="st56" d="M1148.6,774.8c0.4,0.3,0.8,0.7,1.2,1.2c1.2,1.3,1.6,2.4,1,2.4c-0.1,0-0.3,0-0.4-0.1"/>
			</g>
			<path class="st57" d="M1140,774.5c-0.7-0.8-1.6-3.1-2-5c-0.7-3.1-0.6-3.3,0.7-1.2c0.8,1.3,2.2,3.2,3.1,4.3c1,1.1,1.2,2.2,0.6,2.6
				C1141.7,775.6,1140.6,775.3,1140,774.5z"/>
			<g>
				<path class="st0" d="M1116.7,771.7c-0.5-0.2-1.1-0.6-1.8-1v0l-2.9-1.6l2-0.4"/>
				<path class="st58" d="M1117.7,768c2.4-0.7,5.5-2.4,7.4-4.1c2.4-2.1,4-2.9,4-1.9c0,2.4-1.5,4.3-5.9,7.5c-2.5,1.8-3.6,2.7-4.7,2.7
					"/>
			</g>
			<g>
				<path class="st0" d="M895.3,766.8c-0.6-0.1-1.3-0.3-1.9-0.6v0c-0.5-0.3-1.1-0.7-1.6-1.1"/>
				<path class="st59" d="M888.8,762.3c-3.9-4-8.3-10-10.1-14.1c-1.4-3.2-4.5-8.5-7-11.7s-5.3-7.5-6.3-9.4c-1-1.9-4-5.7-6.7-8.3
					c-5.7-5.5-9.2-11.2-6.8-11.2c3.1,0.1,11.1,4.5,14.5,8.1c9.4,9.9,11.4,11.6,15.8,14.4c4.3,2.6,6.3,5.4,6.5,8.9
					c0,0.6,1.3,2.5,2.7,4.1s4.2,4.7,6.1,6.8c1.9,2.1,3.8,5.4,4.2,7.3c1,4.5-1.3,8.6-4.5,9.6"/>
			</g>
			<path class="st38" d="M655.5,765.4c0-0.6,0.5-1.2,1.2-1.2c0.6,0,1.2,0.5,1.2,1.2s-0.5,1.2-1.2,1.2
				C656,766.5,655.5,766,655.5,765.4z"/>
			<g>
				<path class="st0" d="M969.4,766.5c-0.6,0-1.1-0.4-1.6-1.1l0,0c-0.2-0.4-0.3-1.1-0.3-2"/>
				<path class="st60" d="M967.9,759.4c-0.2-0.9-0.6-1.8-1.1-2.6c-1.6-2.5-1.6-3,0.2-5.6c1.1-1.6,2.4-5.7,2.9-9.3
					c0.6-4.4,1.8-7.3,3.7-9.2c2.6-2.6,3.2-2.7,9-1.6c5,0.9,6.9,0.8,9.6-0.6c4.5-2.3,4.9-2.2,3.4,1.1c-1.9,4.2-5.7,5.5-9.8,3.4
					c-7.2-3.8-16.8,1.8-11.7,6.9c1.9,1.9,2.9,2,6.3,1c5.9-1.7,8.2-1.4,4.5,0.6c-4.1,2.2-4.9,4.7-2.8,8.9c1,1.9,1.8,4.8,1.8,6.5
					c0,2.7-0.3,2.9-2.4,1.8c-1.3-0.7-3.2-3.2-4.2-5.6c-1.8-4.3-1.8-4.3-4.1-2c-2,2-2.1,2.9-1,6.9c1,3.6,0.9,4.8-0.3,5.6
					c-0.2,0.1-0.3,0.2-0.5,0.3"/>
			</g>
			<g>
				<path class="st0" d="M1131.2,760.6c-0.4-0.3-0.8-0.9-1.3-1.6v0c-0.3-0.5-0.8-1-1.3-1.5"/>
				<path class="st61" d="M1125.8,755c-0.5-0.4-1-0.7-1.5-0.9c-2-1-3.4-2.1-3.1-2.5c1.8-1.8,11.2,5.8,11.3,8.7"/>
			</g>
			<g>
				<path class="st0" d="M946.3,755.9c-0.6-0.2-1.2-0.4-1.8-0.8h0c-0.6-0.3-1.2-0.6-1.9-0.7"/>
				<path class="st62" d="M938.6,754.2c-3.6,0.6-14.2-1.7-15.2-3.3c-0.9-1.4-3.6-10.1-5.1-16.2c-0.4-1.7,0-3.9,0.9-5.2
					c1.4-1.8,2.1-2,4.2-0.8c2.3,1.2,2.7,1,4-1.7c0.8-1.7,3.4-4.1,5.7-5.3c2.5-1.3,4.9-3.7,5.8-5.8c1-2.4,2.8-4,5.5-4.9
					c2.2-0.7,5.4-3.1,7.1-5.4c1.7-2.2,3.7-4,4.5-4c0.8,0,3.1,1.8,5.2,3.9l1,1"/>
				<polyline class="st0" points="963.6,707.9 965,709.4 963.8,711 				"/>
				<path class="st63" d="M961.3,714.3c-2.8,4.3-2.4,8.1,1.2,13.2l0,0"/>
				<polyline class="st0" points="963.8,729.2 964.9,730.8 963.3,731.9 				"/>
				<path class="st64" d="M959.8,734.7c-0.5,0.6-0.7,1.1-0.7,1.4c0,2.7-7.6,18.3-9.5,19.5c-0.3,0.2-0.7,0.4-1.1,0.4"/>
			</g>
			<path class="st65" d="M1013.1,755.1c-2.4-0.6-2.8-2.7-0.4-2.7c0.9,0,3.4,0.4,5.6,0.8c3.3,0.7,3.6,0.9,1.6,1.7
				C1017.2,755.8,1016.1,755.9,1013.1,755.1z"/>
			<path class="st39" d="M1201.2,740c0-0.3,0.5-0.8,1.2-1.3c0.6-0.4,1.2-0.2,1.2,0.5s-0.5,1.3-1.2,1.3
				C1201.7,740.5,1201.2,740.3,1201.2,740z"/>
			<g>
				<path class="st0" d="M1010.6,737.9c-0.5-0.1-1.1-0.5-1.7-1.1h0c-0.5-0.5-0.8-1.1-0.8-1.8"/>
				<path class="st66" d="M1009.4,730.9c0-0.4-0.1-0.7-0.2-1c-1.1-1.7,1.6-5.9,3.8-5.9c1.7,0,1.7,0.2-0.1,2.2
					c-1.6,1.7-1.7,2.9-0.8,5.3c0.9,2.4,0.9,4.4,0.3,5.5"/>
			</g>
			<path class="st67" d="M415.8,732.9c0-0.3,0.5-0.8,1.2-1.3c0.6-0.4,1.2-0.2,1.2,0.5s-0.5,1.3-1.2,1.3S415.8,733.2,415.8,732.9z"/>
			<path class="st67" d="M1234.8,729.9c-0.4-0.6-0.2-1.2,0.5-1.2c0.7,0,1.3,0.5,1.3,1.2s-0.2,1.2-0.5,1.2
				C1235.8,731.1,1235.2,730.6,1234.8,729.9z"/>
			<path class="st67" d="M422.8,718.8c0-0.3,0.5-0.8,1.2-1.3s1.2-0.2,1.2,0.5s-0.5,1.3-1.2,1.3S422.8,719.1,422.8,718.8z"/>
			<g>
				<path class="st0" d="M991.8,702.8c-0.3-0.5-0.5-1.1-0.8-1.8v0c-0.3-0.7-0.6-1.3-0.8-1.8"/>
				<path class="st68" d="M987.7,696.1c-0.7-0.2-1.5-0.1-2.8,0.2c-3.5,0.8-3.6,0.7-2.3-1.8c1.1-2,2.1-2.4,4.6-1.8
					c2.4,0.5,4,0,6.4-2.2c1.7-1.6,3.2-3.9,3.2-5.1c0-3,4.4,7,5.4,12.4c0.8,4.1,0.7,4.3-1.2,2.8c-2.7-2.3-5.4,0.1-3.1,2.8
					c0.9,1.1,1,1.8,0.3,1.8c-0.7,0-2.1,0.3-3.1,0.7c-0.8,0.3-1.6,0-2.4-1.2"/>
			</g>
			<g>
				<path class="st0" d="M777.5,703.5c-0.9,0.1-1.6,0-1.9-0.4v0c-0.2-0.4-0.5-1.1-0.7-1.9"/>
				<path class="st69" d="M774.3,697.2c-0.3-3.3-0.3-7,0.2-8.4c1-2.7,1.1-2.7,4.1,1.8c3.6,5.3,4.8,8.7,3.6,10.6
					c-0.5,0.7-1.6,1.4-2.7,1.8"/>
			</g>
			<path class="st70" d="M1039.4,697c0-0.6,0.5-1.5,1.2-1.9s1.2-0.2,1.2,0.5c0,0.6-0.5,1.5-1.2,1.9S1039.4,697.6,1039.4,697z"/>
			<path class="st39" d="M1224.8,696.8c0-0.6,0.2-1.2,0.5-1.2c0.3,0,0.8,0.5,1.3,1.2s0.2,1.2-0.5,1.2S1224.8,697.5,1224.8,696.8z"/>
			<path class="st71" d="M956.7,690c0-0.5,2.4-3.6,5.3-6.8c4.2-4.7,5.3-5.4,5.3-3.4c0,1.3-1.7,4.4-3.9,6.8
				C959.6,690.7,956.7,692.2,956.7,690z"/>
			<path class="st72" d="M982.3,686.9c-0.4-1.1-0.3-2.8,0.2-3.8c0.8-1.5,1.2-1.5,2.3-0.1c1,1.3,1,2.2-0.2,3.8
				C983.1,688.8,983,688.8,982.3,686.9z"/>
			<g>
				<path class="st0" d="M77.7,683.8c-0.8-0.2-0.7-0.6,0.1-1.5v0c0.5-0.6,0.8-1.3,0.7-1.8"/>
				<path class="st73" d="M81.1,679.2c0.9,0.2,1.1,0.9,0.7,2.3c-0.3,1.1-1.1,1.9-2.1,2.2"/>
			</g>
			<path class="st74" d="M990.2,682c-0.4-1.2-1-2.6-1.3-3.1s0-0.9,0.6-0.9c1.2,0,2.8,4.8,2,5.7C991.2,684,990.6,683.2,990.2,682z"/>
			<path class="st75" d="M978.2,678.9c-1.7-2,0-4.8,2.4-4.3c1.6,0.3,1.6,0.8,0.4,3.1C979.8,680,979.3,680.2,978.2,678.9z"/>
			<path class="st76" d="M992.2,674.8c-1.4-1.7-2.3-3.3-2-3.6c1-1,4.3,1.2,6,3.9C998.9,679.2,995.5,679,992.2,674.8z"/>
			<path class="st77" d="M972.8,670.2c-1.1-1.1-1.9-2.5-1.9-3.3s1.2-0.2,2.6,1.2c1.4,1.4,2.3,2.9,1.9,3.3S973.8,671.3,972.8,670.2z"
				/>
			<path class="st78" d="M45.7,670.1c-0.4-0.4-0.8-1.3-0.8-2c0-0.7,0.6-0.7,1.4,0.2c0.8,0.8,1.1,1.7,0.8,2
				C46.7,670.6,46.1,670.5,45.7,670.1z"/>
			<path class="st39" d="M39,668.5c0-0.6,0.2-1.2,0.5-1.2s0.8,0.5,1.3,1.2c0.4,0.6,0.2,1.2-0.5,1.2S39,669.2,39,668.5z"/>
			<path class="st39" d="M94.5,666.1c0-0.6,0.2-1.2,0.5-1.2c0.3,0,0.8,0.5,1.3,1.2c0.4,0.6,0.2,1.2-0.5,1.2S94.5,666.8,94.5,666.1z"
				/>
			<g>
				<path class="st0" d="M986.5,666.5c-0.5,0.1-1.1-0.1-1.9-0.5c-0.5-0.3-1.2-0.5-1.9-0.6"/>
				<path class="st79" d="M978.6,665.6c-1.8,0-3.5-1.2-7.1-4.9c-6-6.2-7.2-8.8-5.4-12.2c0.7-1.3,1.2-3.9,1.2-5.9
					c0-6.4,4.3-6.2,7.4,0.4c1.7,3.7,1.8,4.4,0.1,8.4c-1.8,4.2-1.7,4.4,1.4,7.7c2.3,2.4,4,3.2,5.8,2.7c1.5-0.4,3.2,0.1,4,1.2
					c0.5,0.6,0.9,1.2,1,1.7"/>
			</g>
			<path class="st67" d="M87.4,658.5c0-0.3,0.5-0.8,1.2-1.3c0.6-0.4,1.2-0.2,1.2,0.5s-0.5,1.3-1.2,1.3
				C87.9,659.1,87.4,658.8,87.4,658.5z"/>
			<circle class="st38" cx="274" cy="654.3" r="1.2"/>
			<path class="st70" d="M83.9,649.7c0-0.6,0.5-1.5,1.2-1.9s1.2-0.2,1.2,0.5c0,0.6-0.5,1.5-1.2,1.9S83.9,650.4,83.9,649.7z"/>
			<path class="st80" d="M73.8,644.9c-0.4-0.7,0.1-0.9,1.1-0.5c2,0.8,2.4,1.6,0.7,1.6C75.1,646.1,74.2,645.5,73.8,644.9z"/>
			<path class="st39" d="M261.6,644.9c-0.4-0.6-0.2-1.2,0.5-1.2s1.3,0.5,1.3,1.2s-0.2,1.2-0.5,1.2
				C262.6,646.1,262,645.5,261.6,644.9z"/>
			<path class="st39" d="M78.6,642.5c-0.4-0.6-0.2-1.2,0.5-1.2s1.3,0.5,1.3,1.2s-0.2,1.2-0.5,1.2C79.5,643.7,79,643.2,78.6,642.5z"
				/>
			<path class="st39" d="M83.9,642.5c0-0.6,0.2-1.2,0.5-1.2c0.3,0,0.8,0.5,1.3,1.2c0.4,0.6,0.2,1.2-0.5,1.2S83.9,643.2,83.9,642.5z"
				/>
			<path class="st81" d="M2.7,639.4c-0.8-0.3-1.5-1.1-1.5-1.7c0-1.7,5.2-1.3,7.7,0.7c2.2,1.6,2.1,1.7-1.3,1.7
				C5.7,640,3.5,639.7,2.7,639.4z"/>
			<g>
				<path class="st0" d="M34.5,639c-0.9,0-1.6-0.1-2-0.3v0c-0.5-0.3-1.1-0.4-1.9-0.5"/>
				<path class="st82" d="M26.5,638.5c-1.7,0.2-3.9,0-5.3-0.6c-2.5-1-2.3-1.1,1.9-1c6.3,0.1,8-0.9,6.4-3.9c-1.1-2.1-0.8-2.3,4.8-2.3
					c5.5,0,13.3,2.5,14.6,4.7c0.6,1-7.2,3-12.4,3.5"/>
			</g>
			<path class="st83" d="M55.2,639.5c-1.4-1.4,0.3-2.8,3.4-2.8c1.9,0,2.8,0.6,2.5,1.5C60.6,639.7,56.5,640.7,55.2,639.5z"/>
			<path class="st84" d="M909.7,637.6c-3.1-3.1,0-6.9,5.7-6.9c2.5,0,2.5,0,0.4,3.7C913.2,638.8,911.7,639.6,909.7,637.6z"/>
			<path class="st85" d="M65,637.3c0-0.3,0.8-0.8,1.8-1.1c1-0.4,1.8-0.2,1.8,0.5s-0.8,1.1-1.8,1.1C65.8,637.8,65,637.6,65,637.3z"/>
			<path class="st86" d="M13.9,628.9c-0.4-0.4-2.9-0.7-5.5-0.7c-3.7-0.1-4.6-0.4-3.7-1.5c0.9-1.1-0.4-2.5-4.7-5.3
				c-8.5-5.5-13.3-6.6-19-4.3c-5.4,2.1-5.8,2.2-5.8,0.9c0-2.5,9.4-5.2,16.2-4.7c6.5,0.5,10.1,1.9,22.8,8.7
				c10.4,5.6,10.5,5.6,7.1,6.6C17.4,629.5,14.7,629.7,13.9,628.9z"/>
			<path class="st87" d="M22.5,618.9c2.3-1.5,3.5-1.5,3.5,0c0,0.6-1.2,1.2-2.7,1.2C21.2,620,21,619.8,22.5,618.9z"/>
			<g>
				<path class="st0" d="M964.6,615.8c-0.5,0.9-1,1.3-1.5,1c-0.4-0.2-0.9-0.8-1.4-1.4"/>
				<path class="st88" d="M959.7,611.7c-0.4-1.4,0-2.6,1.4-4.9c2.8-4.7,4.6-5.3,5.5-1.7c0.5,2.2-0.1,6.1-1.1,8.8"/>
			</g>
			<path class="st89" d="M30.2,615.2c0.8-1.3,5.2-1.4,5.2-0.2c0,0.5-1.3,1-2.9,1.1C30.9,616.2,29.8,615.8,30.2,615.2L30.2,615.2z"/>
			<path class="st90" d="M6.9,603.8c-1.9-2.2-1.6-5,0.5-5c0.7,0,0.9,1,0.6,2.3c-0.3,1.3,0,2.5,0.7,2.8c0.7,0.3,1,0.8,0.7,1.2
				C9,605.6,7.8,605,6.9,603.8z"/>
			<path class="st91" d="M13.7,594.6c-0.4-1.1-0.5-2.3-0.2-2.6c0.3-0.3,0.9,0.3,1.4,1.4c0.4,1.1,0.5,2.3,0.2,2.6
				C14.7,596.3,14.1,595.7,13.7,594.6z"/>
			<path class="st92" d="M6.3,593.5c0-1,1-1.8,2.2-1.8c2,0,2.1,0.2,0.5,1.8c-1,1-2,1.8-2.2,1.8C6.5,595.3,6.3,594.5,6.3,593.5z"/>
			<path class="st93" d="M996.8,567.6c0-0.9-1.3-3.2-2.9-5.1c-3.7-4.4-2.4-7.4,2-4.5c3.2,2.1,4.9,6.4,3.7,9.4
				C998.8,569.8,996.8,569.9,996.8,567.6z"/>
			<path class="st67" d="M80.3,560.5c0-0.3,0.5-0.8,1.2-1.3s1.2-0.2,1.2,0.5s-0.5,1.3-1.2,1.3S80.3,560.8,80.3,560.5z"/>
			<g>
				<path class="st0" d="M1004.5,560.7c-0.4-0.3-0.7-0.8-1-1.7v0c-0.3-0.7-0.2-1.4,0.1-1.9"/>
				<path class="st94" d="M1007.2,555.1c1.8,0,1.9,2.6,0,4.5c-0.3,0.3-0.5,0.5-0.7,0.7"/>
			</g>
			<g>
				<polyline class="st0" points="1016.8,556 1016.3,557.9 1015.2,556.2 				"/>
				<path class="st95" d="M1012.8,553.1c-2.2-1.9-5.5-1.9-11.5-0.3c-3,0.8-5.1,0.8-6.5,0c-1.1-0.7-1.4-1.2-0.7-1.2
					c0.8,0,3-1.4,4.9-3c2.5-2.1,4.4-2.8,6.4-2.3c2.1,0.5,4.4-0.5,9.2-4.1c9.3-7,10.2-9.2,6.4-16.7c-3.6-7.2-2.6-9.5,2.8-6.3
					c3.9,2.3,7.6,9,6.6,11.8c-0.4,1,0.2,4.2,1.3,7c1.5,4.1,1.7,5.8,0.7,7.7c-1.5,2.8-5.7,4.7-10.5,4.7c-2.7,0-3.5,0.7-4.4,3.7"/>
			</g>
			<g>
				<path class="st0" d="M537.7,550.7c-0.9,0.3-1.6,0.3-1.9,0c-0.7-0.7-0.8-1.3-0.6-1.8"/>
				<path class="st96" d="M538.1,548c1-0.2,2-0.6,2.3-1.1c1.1-1.8,3-1.4,2.3,0.4c-0.4,1-1.9,2.1-3.4,2.9"/>
			</g>
			<g>
				<polyline class="st0" points="493.7,547.9 491.9,547 493.9,547 				"/>
				<path class="st97" d="M497.7,547c5.4,0,9.2,1.1,8.4,2.4c-1,1.5-6.5,1.2-10.5-0.7l0,0l0,0"/>
			</g>
			<path class="st98" d="M447.8,536.9c-4.7-2.4-4.9-2.7-2.5-3.4c3-0.8,9.5,0.2,9.4,1.4c0,0.4-0.4,1.6-0.9,2.7
				C453,539.4,452.5,539.3,447.8,536.9z"/>
			<g>
				<path class="st0" d="M424.9,525.9c-0.3-0.5-0.6-1.1-0.8-1.8v0c-0.3-0.7-0.4-1.4-0.6-1.9"/>
				<path class="st99" d="M424.6,518.6c2.3-2.2,4.1-0.5,4.1,4c0,3.3-1.1,5-2.4,4.6"/>
			</g>
			<path class="st100" d="M396.4,525.1c0.8-2.2,4.4-2.6,3.7-0.4c-0.3,0.8-1.4,1.6-2.5,1.9C396.3,526.8,395.9,526.4,396.4,525.1
				L396.4,525.1z"/>
			<g>
				<path class="st0" d="M1014.7,513.2c-0.3-0.4-0.7-1-1.2-1.6h0c-0.5-0.7-0.8-1.2-1.1-1.7"/>
				<path class="st101" d="M1012.7,506c0.1-0.1,0.1-0.2,0.2-0.3c1.6-2.2,1.6-2.9-0.1-6c-2.7-5.1-2.3-5.4,2.3-1.9
					c2.3,1.7,6.8,3.9,10,4.9c6.6,2,8.2,3.5,4.8,4.6c-1.3,0.4-2.4,1.5-2.4,2.5c0,1.3-0.8,1.5-3.2,0.9c-6.2-1.6-8-1.2-7.6,1.7
					c0.3,2,0.1,2.8-0.5,2.4"/>
			</g>
			<path class="st102" d="M426,513c-1.4-1.4-0.9-3.7,1-4.4c1.3-0.5,1.8,0.1,1.8,2.2C428.7,513.7,427.6,514.6,426,513z"/>
			<path class="st103" d="M1006,488.1c-1-1.1-3.4-5.3-5.4-9.2s-7.1-11.1-11.5-15.9c-4.9-5.4-7.3-9-6.4-9.3c0.8-0.3,2.6,1,3.9,2.7
				c3.2,4.3,7.3,8.1,13.6,12.7c5.2,3.9,7.8,7.4,4.4,6.1c-3.9-1.5-2.9,2.1,2.1,7.7c2.9,3.3,5.3,6.3,5.3,6.6
				C1012.2,491,1007.6,489.9,1006,488.1L1006,488.1z"/>
			<path class="st85" d="M141.7,486c0-1,0.5-1.8,1.1-1.8s0.8,0.8,0.5,1.8c-0.4,1-0.9,1.8-1.1,1.8C142,487.8,141.7,487,141.7,486z"/>
			<g>
				<polyline class="st0" points="133.2,482 131.2,481.8 132.6,480.3 				"/>
				<path class="st104" d="M135.4,477.5l4-4c4.6-4.5,8.9-8.2,9.6-8.2c0.8,0,0.5,0.9-0.5,2.1c-2.5,2.7-0.8,5.8,3.7,6.8
					c2,0.4,3.9,1.9,4.7,3.6c1.2,2.7,1,2.9-3.1,4.1c-4.3,1.2-9.4,1.3-18.2,0.4h0l-0.4,0"/>
			</g>
			<path class="st105" d="M-152.2,473.7c-4.1-3.8-4.5-5.4-1.8-6.5c2.4-0.9,6.9,2.1,8.6,5.8c1.8,3.9,1.8,4.1-0.9,4.1
				C-147.5,477.2-150.2,475.6-152.2,473.7z"/>
			<g>
				<path class="st0" d="M367.5,468.5c-1,0.1-0.9-0.1,0.4-0.7v0c0.5-0.2,1.1-0.5,1.8-0.8"/>
				<path class="st106" d="M373.3,465.5c0.1,0,0.2-0.1,0.3-0.1c4-1.5,3.4-3-1.7-4c-3.5-0.7-3.6-0.9-1.6-2.3c1.2-0.9,1.8-2.1,1.4-2.8
					c-0.4-0.7,0.8-1.8,2.8-2.5c1.9-0.7,3.5-1.8,3.5-2.4c0-2.7-2.5-7.3-3.8-7.1c-3.2,0.4-4.6-0.1-4.1-1.6c0.3-0.8,0.1-2.4-0.5-3.5
					c-1.5-3,2-9.1,5.2-9.1c0.5,0,0.8,0.6,0.6,1.4c-0.1,0.6,0.5,1.2,1.4,1.6"/>
				<polyline class="st0" points="378.6,433.4 380.5,433.7 379.2,435.1 				"/>
				<polyline class="st0" points="376.6,437.8 375.3,439.3 377.1,440 				"/>
				<path class="st107" d="M380.6,441.9c2.4,2,4.7,5.5,7.1,10.7c1.5,3.3,2.5,4.2,4.3,3.7c3.6-0.9,4,1.5,0.7,3.7
					c-2.3,1.5-2.7,2.4-1.7,3.4c1,1-1,1.7-7.8,2.7c-5.1,0.7-11.1,1.7-13.3,2.1c-0.1,0-0.1,0-0.2,0"/>
			</g>
			<path class="st108" d="M348,461.2c-0.4-1.1,0.1-3.4,1-5.3c1.1-2.1,1.3-3.7,0.6-4.1c-2-1.3-1.3-2.9,1.7-3.6
				c1.6-0.4,3.5-1.5,4.3-2.4c1.6-1.9,8.8-2.2,9.9-0.5c0.4,0.6-0.1,2.4-1.1,3.8c-1,1.4-1.8,4-1.8,5.8c0,2.6-0.8,3.4-5,4.9
				c-2.8,1-5.9,2.1-6.9,2.6C349.4,462.8,348.5,462.5,348,461.2z"/>
			<path class="st67" d="M369.7,449.5c0-0.3,0.5-0.8,1.2-1.3c0.6-0.4,1.2-0.2,1.2,0.5c0,0.7-0.5,1.3-1.2,1.3
				S369.7,449.8,369.7,449.5z"/>
			<path class="st109" d="M-154.5,443.8c-1.2-1.4-1.1-2,0.4-3.2c2.4-2,3.6-0.6,2.2,2.5C-152.9,445.2-153.2,445.3-154.5,443.8
				L-154.5,443.8z"/>
			<path class="st110" d="M-156.3,434.9c-0.4-0.6,0.1-1.8,1-2.6c1.9-1.6,2.3-0.3,0.7,2.2C-155.2,435.5-155.9,435.6-156.3,434.9z"/>
			<path class="st111" d="M-232.7,434.2c0-0.8,3.6-2.3,8.7-3.5c1.9-0.5,3.1-0.4,2.7,0.3c-0.4,0.6-2.1,1.4-3.9,1.7
				c-1.8,0.4-4.2,1-5.3,1.5C-231.7,434.5-232.7,434.6-232.7,434.2z"/>
			<path class="st112" d="M469.2,420.9c-2.2-0.9-1.8-2.2,0.7-2.4c1.2-0.1,2.2,0.6,2.2,1.5C472,421.7,471.6,421.9,469.2,420.9
				L469.2,420.9z"/>
			<g>
				<path class="st0" d="M211.4,415.8c-0.6-0.3-1.2-0.6-1.8-0.9v0c-0.6-0.3-1.2-0.7-1.7-1"/>
				<path class="st113" d="M204.7,411.4c-4-3.7-5.6-8.2-4-12.1c1-2.5,1.1-4,0.1-5.8c-2-3.7,0.6-7.9,7.1-12c3.1-1.9,6.2-4.5,6.9-5.8
					c1.9-3.5,0.2-9.6-3.1-11.1c-1.7-0.8-2.6-2-2.2-2.9c0.8-2.2-3.1-9.6-7-13.3c-2.9-2.7-4.1-3-14-3c-13.4-0.1-15.9-0.8-15.7-4.7
					c0.1-1.6,0.4-2.9,0.8-2.9c0.3,0,5.1-0.6,10.6-1.2c7-0.9,13.3-2.6,21.2-6c12.1-5.2,13.1-5.3,42-4.6c9.1,0.2,17.5-0.5,28.3-2.3
					c10.1-1.7,17.5-2.3,21.5-1.9c3.4,0.4,8.3,0.1,11.1-0.6c6.4-1.7,23.2,0.4,29.8,3.7c3.9,2,6,2.2,12.5,1.6c7.1-0.7,7.6-0.6,5.5,1
					c-1.3,1-5.3,2.1-8.9,2.6c-7.8,1-14.9,6.5-13,10.1c0.8,1.5,0.2,2.8-2.4,5.3c-1.9,1.8-3.8,4.2-4.1,5.3c-0.8,2.6-11.3,7.4-16.4,7.6
					c-5.8,0.2-6.4,1.4-1.9,3.9c2,1.1,4.9,3,6.6,4.2"/>
				<polyline class="st0" points="317.6,367.7 319.2,368.9 317.3,369.6 				"/>
				<path class="st114" d="M313.6,370.1c-1.1-0.3-2.5-1-4.3-2.3c-4.7-3.2-9.7-3.3-7,0c1,1.3,0.8,1.8-1.2,2.3
					c-4.4,1.1-1.3,3.4,3.6,2.6c3.1-0.5,4.8-0.2,5.8,0.9c1.1,1.4-0.3,2-9,3.8c-5.7,1.2-13.3,2.2-16.8,2.3c-6.6,0.1-11.4,2-18.5,7.4
					c-2.3,1.7-7.2,3.5-12.9,4.6c-11.9,2.3-16,4.9-23.1,15.2c-5.8,8.2-9.3,11.3-12.8,11.3c-0.6,0-2.2-0.6-4.1-1.4"/>
			</g>
			<g>
				<path class="st0" d="M127.7,407.9c-0.6-0.3-1.2-0.6-1.8-1v0c-0.5-0.3-1.1-0.7-1.6-1.1"/>
				<path class="st115" d="M121.3,403.2c-1-1-1.8-1.9-2.3-2.7c-2.5-3.9-4.7-4.4-11.4-2.5c-2.3,0.6-4.8,0.7-5.8,0.1
					c-3.5-2,2.8-3.9,9.9-3c5.4,0.7,6.5,0.5,7.2-1.1c1.3-3.3,7-5.6,10.2-4.2c2,0.9,3.7,0.9,6.3-0.1c3.4-1.3,3.4-1.4,1.2-3
					c-1.3-0.9-2.7-1.7-3.2-1.7c-0.5,0-2.3-2.4-4-5.3c-1.7-2.9-4.9-6.4-7.1-7.7c-3.7-2.3-4.2-2.3-7.6-0.6c-2.9,1.5-4.6,1.6-9.2,0.6
					c-3.1-0.7-7.4-0.9-9.6-0.5c-3.8,0.7-10.8-1.2-10.8-2.9c0-3.2,10-10.3,15.9-11.4l0.8-0.1"/>
				<polyline class="st0" points="103.8,356.8 105.7,356.4 104.4,357.9 				"/>
				<path class="st116" d="M101.7,360.8c-3.8,4.4-1.9,6.2,2.8,2c2.1-1.9,5.9-3.8,8.2-4.2c3.6-0.7,5.2-0.2,9.8,2.8
					c6.1,4,6.6,4.1,10,2.3c2.1-1.1,2.8-0.8,5.1,2c1.6,1.9,5,4.1,8.4,5.1c5.4,1.7,5.8,2.1,5.8,5.8c0,2.8,0.8,4.6,2.7,5.9
					c7.9,5.7,7.8,5.4,6,8.2c-2.4,3.8-4.2,4-9.4,1.4c-3.6-1.8-5.2-2.1-7-1.1c-2.2,1.2-2.3,1.4-0.5,4.9c1.5,2.8,1.6,4.3,0.6,6.5
					c-1.2,2.7-1.4,2.7-4.8,1c-6.6-3.4-11-1.2-4.9,2.5c1.9,1.1,3.2,2.5,2.9,3c-0.9,1.4-4.4,1.2-8-0.2"/>
			</g>
			<ellipse class="st117" cx="370.3" cy="408.5" rx="1.8" ry="1"/>
			<path class="st118" d="M81.4,402.1c-2.3-1.2-4.1-1.3-7.4-0.4c-5.5,1.5-7.5,0.4-4.7-2.7c3.6-4,6-4.8,10.4-3.3
				c4.9,1.6,7.1,4,5.7,6.3C84.6,403.5,84,403.5,81.4,402.1z"/>
			<g>
				<polyline class="st0" points="340,393.7 341.7,394.8 340.1,396 				"/>
				<path class="st119" d="M336.8,398.3c-2.8,1.4-7.3,2.9-15.5,5.1c-1,0.3-3.4-0.6-5.3-1.8c-1.9-1.3-4.4-2-5.5-1.7
					c-1.5,0.5-1.8,0.1-1.4-1.7c0.7-2.7,11.1-6.6,14.6-5.5c1.2,0.4,4.3,0.1,6.9-0.7c4-1.2,5.1-1.1,7.7,0.6"/>
			</g>
			<g>
				<path class="st0" d="M-2.7,379.8c-0.6-0.1-1.3-0.2-2-0.3v0c-0.5-0.1-1.1-0.2-1.9-0.5"/>
				<path class="st120" d="M-10.3,377.8c-1.1-0.4-2.2-0.9-3.2-1.3l-2.2-1"/>
				<polyline class="st0" points="-17.5,374.6 -19.3,373.8 -17.3,373.7 				"/>
				<path class="st121" d="M-13.2,373.4l2.1-0.2c4.5-0.3,8.2-1.1,8.2-1.8c0-0.6-3.2-1.5-7.1-1.8c-5.1-0.5-6.1-0.8-3.5-1.2
					c4.3-0.7,4.6-2.5,0.6-3.5c-2.9-0.7-2.9-0.8,1.2-2.5c7.1-3,14.6-3.6,21.3-1.6c5.5,1.6,6.3,1.6,8.9-0.1c1.8-1.2,2.9-1.4,3-0.6
					c0.1,0.7,0.2,1.9,0.3,2.7c0.3,2.6,2.6,2.2,5.4-0.8c2.6-2.8,7.1-4.1,7.1-2.1c0,0.5-1.1,2.6-2.3,4.7l-0.2,0.4"/>
				<polyline class="st0" points="30.6,366.8 29.6,368.5 31.4,369.4 				"/>
				<polyline class="st0" points="35.4,371.5 37.2,372.5 35.4,373.3 				"/>
				<path class="st122" d="M31.4,375.1l-0.4,0.2c-5.6,2.6-6.8,2.7-11.9,1.5c-4.9-1.2-6.3-1-11.3,1.1c-3.9,1.7-5.7,2.3-8.4,2.1"/>
			</g>
			<g>
				<path class="st0" d="M44.1,380c-0.5-0.2-0.9-0.6-1.5-1.3c-0.6-0.7-0.7-1.2-0.2-1.8"/>
				<path class="st123" d="M46.2,375.2c1.7-0.4,3.6-0.5,4.8-0.1c2.6,0.8,2.5,0.9-1.4,3c-1.5,0.8-2.6,1.4-3.4,1.7"/>
			</g>
			<path class="st124" d="M368.5,373.2c2.3-1.5,3.5-1.5,3.5,0c0,0.6-1.2,1.2-2.7,1.2C367.2,374.4,367.1,374.2,368.5,373.2z"/>
			<g>
				<path class="st0" d="M587.1,370.6c-0.7-0.2-1.3-0.4-1.9-0.7c-0.7-0.3-1.3-0.5-1.9-0.7"/>
				<path class="st125" d="M580,367.2c0-0.4,0.4-0.9,1.1-1.6c0.8-1,1-1.8,0.5-1.8c-0.6,0,0-0.8,1.3-1.8c1.3-1,2.4-2.2,2.4-2.6
					c0-1.7,4.8-6.4,8.2-7.9c1.9-0.9,7-1.9,11.2-2.2s9.9-0.9,12.6-1.4c2.9-0.4,5.2-0.3,5.6,0.4c0.8,1.4-0.8,1.9-9.9,3.6
					c-9.1,1.6-14.6,4.2-18.2,8.5c-3.6,4.2-3.9,7-1,9.3"/>
				<polyline class="st0" points="595.4,370.8 597,371.9 595,371.9 				"/>
				<path class="st126" d="M592.4,371.8c-1.1-0.1-2.5-0.4-3.9-0.8"/>
			</g>
			<g>
				<polyline class="st0" points="3.4,356.5 5.3,357.1 3.4,357.5 				"/>
				<path class="st127" d="M-0.4,358.3l-1.3,0.3c-5.8,1.1-18.1,5.3-27.8,9.3c-1,0.4-2.7-0.2-3.8-1.3c-1.9-1.9-1.5-2.3,7.7-7.3
					c10.7-5.9,16.1-6.6,25.7-3.7l1.5,0.5"/>
			</g>
			<g>
				<polyline class="st0" points="47.2,361.1 45.5,360.1 47.5,360.4 				"/>
				<path class="st128" d="M51.7,361c1.9,0.1,2.9-0.3,3.4-1.2c0.8-1.4,8.3-4.3,11.3-4.3c0.5,0,0.1,1.6-0.9,3.5
					c-2.4,4.6-13.6,9.5-13.6,5.9c0-0.6-1.3-1.8-2.9-2.8"/>
			</g>
			<path class="st129" d="M70.4,361.6c-1.7-2.7,9.9-7,14.8-5.4c3.6,1.1,1.2,3.1-5.1,4.1c-2.8,0.5-6,1.2-7,1.7
				C72,362.4,70.8,362.2,70.4,361.6z"/>
			<g>
				<path class="st0" d="M110.1,353c-0.7-0.1-1.3-0.1-2-0.2c-0.7-0.1-1.3-0.1-2-0.2"/>
				<path class="st130" d="M101.9,352.3c-4.8-0.4-8.2-0.8-8.3-0.9c-1.1-1,1.6-4.2,4.4-5.3c2.8-1.2,4.1-1,7.9,0.9
					c3.7,1.9,6.1,2.2,13,1.7c4.2-0.3,8.9-0.2,11.2,0.1"/>
				<polyline class="st0" points="132.1,349.3 134.1,349.8 132.3,350.8 				"/>
				<path class="st131" d="M128.2,352.9c-1.8,0.8-3.5,1.3-4.2,1.2c-0.8-0.1-5.7-0.4-11.7-0.9"/>
			</g>
			<g>
				<polyline class="st0" points="460.3,337.7 460.9,339.6 461.3,337.6 				"/>
				<path class="st132" d="M463.4,334.3c0.1,0,0.2,0,0.2,0c0.9,0,1.7-0.6,1.7-1.4c0-1.1,0.3-1.1,1.4,0c0.8,0.8,4.8,1.4,9.4,1.4
					c8.4,0,10.4,1.5,4.8,3.7c-2.9,1.1-8,0.8-13.6-0.8c-1.1-0.3-2.1-0.2-2.1,0.4c0,1.1,6.6,5.1,8.4,5.1c0.6,0,1.9,0.7,2.8,1.7
					c1.4,1.4,1.4,1.8-0.1,2.3c-1,0.4-1.7,0.1-1.7-0.6c0-0.8-1.5-1-4.3-0.5c-3,0.6-4,0.4-3.4-0.5c0.4-0.7,0.2-2.1-0.6-3
					c-1.5-1.8-5.9-2.4-5.9-0.8c0,0.5-1.7,2.9-3.8,5.2l-1.1,1.2"/>
				<polyline class="st0" points="454.3,349.1 453,350.6 451.2,349.7 				"/>
				<path class="st133" d="M447.8,347.9c-5.6-2.9-6.2-4.2-1.6-4.3c1.8,0,4-0.6,5-1.3c1.5-1.1,1.5-1.2-0.2-0.7
					c-1.1,0.3-2.5,0-3.3-0.8c-1-1-1.6-1-2.3,0.1c-0.6,1-1.9,1.1-4.4,0.4c-6.2-1.9-7.6-2.7-7.6-4.5c0-1.6,1.6-1.7,11.2-1
					c7.4,0.5,11.2,0.4,11.2-0.4c0-2,2.4-1.4,3.7,0.5"/>
			</g>
			<g>
				<polyline class="st0" points="207.7,320.3 209.7,320 207.9,320.9 				"/>
				<path class="st134" d="M204.3,322.6l-4.1,2c-8.9,4.3-23.5,8.5-29.4,8.5c-1.5,0-5.6,1.6-9.3,3.5c-3.7,1.9-7.4,3.5-8.3,3.5
					c-0.9,0-4.8,1.6-8.6,3.5c-3.8,1.9-7,3.5-7,3.5c0,0-1.3-0.8-3-1.8h0c-2-1.2-4.9-1.6-9.4-1.1c-4.2,0.4-7.4,0.1-9.2-0.9
					c-2.4-1.4-1.8-1.5,5.6-1.5c9.2,0.1,13.3-1.9,8.3-4c-2.4-1-2-1.1,2-0.5c5.3,0.7,7.4-0.7,4.5-3.1c-3.1-2.6,0.3-3.4,11.3-2.6
					c6.8,0.4,11.1,0.2,12.8-0.7c3.3-1.8,2-4.1-1.8-3.1c-2.6,0.7-21-0.4-20.2-1.2c0.6-0.6,26.5-3,43.6-4c8.8-0.6,18.7-1.3,21.8-1.7
					l1.8-0.2"/>
			</g>
			<path class="st135" d="M111.6,334.6c-5.7-1.3-5.9-1.7-1.7-3.9c6.1-3.2,11.9-4,14.6-2c2.1,1.5,2,1.8-2.1,4.2
				C118.1,335.4,116.3,335.7,111.6,334.6z"/>
		</g>
	</g>
</g>
</svg>
