<svg xmlns="http://www.w3.org/2000/svg" viewBox="0 0 2204.69 1591.6"><defs><style>.cls-1{fill:none;stroke:#f7e0de;stroke-miterlimit:10;stroke-width:2px;}</style></defs><g id="Layer_2" data-name="Layer 2"><g id="Layer_1-2" data-name="Layer 1"><path class="cls-1" d="M257,.87c171.45,98.86,310.08,211.3,315.72,312.66C576.06,545.34,1,493.82,1,670.41,1,865.62,495.77,1084,490.85,1204.56c-3.91,98.32-332.31,68.93-263.39,196.93,18.57,30.89,155,125.58,386.47,189.14"/><path class="cls-1" d="M419.46.87c171.45,98.86,310.08,211.3,315.72,312.66,3.34,231.81-571.73,180.29-571.72,356.88,0,195.21,494.77,413.54,489.85,534.15-3.91,98.32-332.31,68.93-263.39,196.93,18.57,30.89,155,125.58,386.47,189.14"/><path class="cls-1" d="M578.68.87C750.13,99.73,888.75,212.17,894.4,313.53c3.33,231.81-571.74,180.29-571.73,356.88,0,195.21,494.78,413.54,489.85,534.15-3.91,98.32-332.31,68.93-263.38,196.93,18.56,30.89,155,125.58,386.46,189.14"/><path class="cls-1" d="M737.89.87C909.34,99.73,1048,212.17,1053.61,313.53,1057,545.34,481.88,493.82,481.89,670.41c0,195.21,494.77,413.54,489.85,534.15-3.91,98.32-332.31,68.93-263.39,196.93,18.57,30.89,155,125.58,386.46,189.14"/><path class="cls-1" d="M893.85.87c171.45,98.86,310.08,211.3,315.72,312.66,3.34,231.81-571.73,180.29-571.72,356.88,0,195.21,494.77,413.54,489.85,534.15-3.91,98.32-332.31,68.93-263.39,196.93,18.57,30.89,155,125.58,386.47,189.14"/><path class="cls-1" d="M1053.06.87c171.46,98.86,310.08,211.3,315.72,312.66,3.34,231.81-571.73,180.29-571.72,356.88,0,195.21,494.77,413.54,489.85,534.15-3.91,98.32-332.31,68.93-263.38,196.93,18.56,30.89,155,125.58,386.46,189.14"/><path class="cls-1" d="M1207.4.87c171.45,98.86,310.08,211.3,315.72,312.66,3.34,231.81-571.73,180.29-571.72,356.88,0,195.21,494.77,413.54,489.85,534.15-3.91,98.32-332.31,68.93-263.38,196.93,18.56,30.89,155,125.58,386.46,189.14"/><path class="cls-1" d="M1369.87.87c171.45,98.86,310.07,211.3,315.72,312.66,3.33,231.81-571.74,180.29-571.72,356.88,0,195.21,494.77,413.54,489.84,534.15-3.91,98.32-332.31,68.93-263.38,196.93,18.56,30.89,155,125.58,386.46,189.14"/><path class="cls-1" d="M1532.33.87c171.45,98.86,310.07,211.3,315.72,312.66,3.34,231.81-571.73,180.29-571.72,356.88,0,195.21,494.77,413.54,489.84,534.15-3.91,98.32-332.3,68.93-263.38,196.93,18.57,30.89,155,125.58,386.46,189.14"/><path class="cls-1" d="M1685,.87c171.45,98.86,310.08,211.3,315.72,312.66C2004.1,545.34,1429,493.82,1429,670.41c0,195.21,494.77,413.54,489.85,534.15-3.91,98.32-332.31,68.93-263.39,196.93,18.57,30.89,155,125.58,386.47,189.14"/><path class="cls-1" d="M1847.5.87c171.45,98.86,310.08,211.3,315.72,312.66,3.34,231.81-571.73,180.29-571.72,356.88,0,195.21,494.77,413.54,489.85,534.15-3.91,98.32-332.31,68.93-263.38,196.93,18.56,30.89,155,125.58,386.46,189.14"/></g></g></svg>